<?xml version="1.0" encoding="UTF-8" standalone="no"?>
<!DOCTYPE svg PUBLIC "-//W3C//DTD SVG 1.1//EN" "http://www.w3.org/Graphics/SVG/1.1/DTD/svg11.dtd">
<svg width="100%" height="100%" viewBox="0 0 848 781" version="1.1" xmlns="http://www.w3.org/2000/svg" xmlns:xlink="http://www.w3.org/1999/xlink" xml:space="preserve" xmlns:serif="http://www.serif.com/" style="fill-rule:evenodd;clip-rule:evenodd;stroke-linejoin:round;stroke-miterlimit:2;">
    <g transform="matrix(1,0,0,1,-1973.642209,-186.210097)">
        <g id="CROW-QUEEN" serif:id="CROW QUEEN" transform="matrix(0.828125,0,0,0.50819,1973.642209,186.210097)">
            <rect x="0" y="0" width="1024" height="1536" style="fill:none;"/>
            <g transform="matrix(1.403061,0,0,2.286369,-2892.669149,-487.364826)">
                <path d="M2223.52,570.926C2203.886,544.088 2182.586,526.072 2182.586,526.072L2111,526.072C2097.324,526.072 2089.018,527.403 2077,536.451C2082.276,506.408 2117.608,476.185 2164.198,473C2168.389,464.487 2180.021,451.072 2193,449C2191.613,452.168 2191,454 2191,454C2209.459,445.928 2266,444 2266,444C2249.533,451.817 2248,458 2248,458C2257.542,459.612 2269.479,463.778 2278.535,467.312C2300.82,451.926 2320.274,437.929 2320,422.714C2320,422.714 2399.254,442.866 2427.553,447.221C2467.823,441.024 2518.723,427.291 2535.168,422.714C2536.203,427.089 2541.994,450.372 2552.315,469.106C2561.578,465.328 2576.12,459.897 2587.346,458C2587.346,458 2585.813,451.817 2569.346,444C2569.346,444 2625.887,445.928 2644.346,454C2644.346,454 2643.733,452.168 2642.346,449C2655.325,451.072 2666.957,464.487 2671.148,473C2717.738,476.185 2765.07,506.408 2770.346,536.451C2758.328,527.403 2750.022,526.072 2736.346,526.072L2652.76,526.072C2652.76,526.072 2631.46,544.088 2611.826,570.926C2611.826,570.926 2618.841,542.007 2608.346,521C2601.908,508.113 2578.851,492.974 2561.987,483.195C2564.395,485.895 2566.96,488.203 2569.68,489.967C2619.805,522.454 2599.758,593.041 2560,620.454C2578.354,597.569 2582.298,559.523 2554,523.094C2587.107,582.126 2450.234,684.072 2427,794.438C2393.503,682.583 2329.375,642.027 2310,615.102C2290.625,588.176 2303.465,551.748 2335.782,536.794C2368.099,521.84 2400.669,506.667 2416,469.739C2371.911,530.404 2257.18,515.162 2281.508,612.789C2281.508,612.789 2252.688,590.33 2252.701,564.961C2252.726,517.11 2325.187,485.497 2324.991,465.939C2313.82,491.343 2221.732,512.074 2226,574.715C2225.119,573.44 2224.293,572.177 2223.52,570.926ZM2506.016,466.61C2502.643,460.95 2499.952,454.033 2500,442.39C2433.484,456.371 2421.906,519.481 2351,542.166C2351,571.929 2397.237,630.512 2427,630.512C2456.763,630.512 2499.386,575.182 2506,541.702C2506,541.702 2495.862,541.128 2493,554.171C2490.138,567.214 2477,566.245 2477,566.245C2477,566.245 2485.491,562.48 2485,547.819C2484.509,533.157 2518.44,519.367 2519,502.438C2519.299,493.407 2517.873,487.221 2515.685,482.258C2510.363,495.621 2499.351,507.35 2488.241,508.499C2488.241,508.499 2490.147,510.107 2495.436,513.098C2488.127,515.006 2472.18,505.892 2465.757,503.427C2459.334,500.963 2450.269,500.37 2445.862,504.121C2450.472,484.256 2486.141,470.065 2506.016,466.61ZM2427.553,574.619C2422.492,574.619 2421.697,573.942 2417.701,573.619C2413.704,573.297 2408.576,576.862 2395.701,572.619C2400.732,572.363 2412.224,560.314 2416.726,559.619C2421.227,558.925 2427.553,563.619 2427.553,563.619C2427.553,563.619 2433.879,558.925 2438.381,559.619C2442.882,560.314 2454.374,572.363 2459.406,572.619C2446.53,576.862 2441.402,573.297 2437.406,573.619C2433.409,573.942 2432.614,574.619 2427.553,574.619ZM2427.553,547.916C2420.361,547.997 2416.733,537.96 2411.553,538.619C2414.82,531.252 2420.893,538.619 2427.553,538.619C2434.214,538.619 2440.286,531.252 2443.553,538.619C2438.373,537.96 2434.745,547.997 2427.553,547.916ZM2427.553,590.619C2416.089,590.619 2412.109,583.044 2405.526,578.619C2410.242,579.389 2412.457,578.05 2416.526,577.619C2420.596,577.189 2427.161,578.338 2427.553,578.619C2427.945,578.338 2434.511,577.189 2438.58,577.619C2442.649,578.05 2444.864,579.389 2449.58,578.619C2442.997,583.044 2439.017,590.619 2427.553,590.619ZM2199.085,485.665C2199.085,493.363 2205.319,499.597 2213.007,499.597C2220.715,499.597 2226.938,493.363 2226.938,485.665C2226.938,477.926 2220.715,471.733 2213.007,471.733C2205.319,471.733 2199.085,477.926 2199.085,485.665ZM2636.261,485.665C2636.261,477.926 2630.027,471.733 2622.339,471.733C2614.631,471.733 2608.408,477.926 2608.408,485.665C2608.408,493.363 2614.631,499.597 2622.339,499.597C2630.027,499.597 2636.261,493.363 2636.261,485.665ZM2466.713,492.413C2483.625,502.116 2490.996,494.653 2498.134,483.317C2484.738,483.317 2475.795,488.722 2466.713,492.413ZM2427.553,430.057C2378.832,422.56 2321.438,404.032 2321.438,404.032L2300.553,308.873C2311.33,323.545 2329.736,332.019 2343.553,331.155C2348.537,319.885 2343.553,270.053 2343.553,270.053L2382.553,316.656C2369.47,321.53 2376.37,344.655 2394.553,344.655C2408.737,344.655 2413.553,334.293 2413.553,319.222C2413.553,304.151 2397.553,294.637 2397.553,294.637C2411.111,273.695 2420.13,248.87 2427.553,222.68C2434.976,248.87 2443.995,273.695 2457.553,294.637C2457.553,294.637 2441.553,304.151 2441.553,319.222C2441.553,334.293 2446.37,344.655 2460.553,344.655C2478.737,344.655 2485.636,321.53 2472.553,316.656L2511.553,270.053C2511.553,270.053 2506.569,319.885 2511.553,331.155C2525.371,332.019 2543.777,323.545 2554.553,308.873L2534.529,404.032C2534.529,404.032 2476.274,422.56 2427.553,430.057ZM2458.879,380.179C2443.023,374.309 2435.419,366.812 2427.981,338.417L2427.981,338.379L2427.976,338.398L2427.971,338.379L2427.971,338.417C2420.534,366.812 2412.93,374.309 2397.074,380.179C2416.311,385.56 2424.906,400.938 2427.971,415.497L2427.971,415.543L2427.976,415.52L2427.981,415.543L2427.981,415.497C2431.046,400.938 2439.642,385.56 2458.879,380.179ZM2364.057,717.164C2331.167,692.554 2274.002,664.106 2244.336,662C2295.145,687.945 2417.645,762.329 2417.673,848C2371.444,762.969 2291.956,755.478 2173,695C2173,695 2208.816,697.24 2221,696C2192.235,686.991 2091.445,627.304 2071,590.619C2100.886,611.721 2176.188,637.64 2221,637C2221,637 2205.879,610.814 2165,590.619C2257.408,597.96 2322.928,655.224 2364.057,717.164ZM2488.636,717.164C2529.765,655.224 2595.285,597.96 2687.693,590.619C2646.813,610.814 2631.693,637 2631.693,637C2676.505,637.64 2751.807,611.721 2781.693,590.619C2761.248,627.304 2660.458,686.991 2631.693,696C2643.876,697.24 2679.693,695 2679.693,695C2560.737,755.478 2481.248,762.969 2435.02,848C2435.048,762.329 2557.548,687.945 2608.356,662C2578.69,664.106 2521.526,692.554 2488.636,717.164Z" style="fill:rgb(76,76,76);"/>
            </g>
        </g>
    </g>
</svg>
