<?xml version="1.0" encoding="UTF-8" standalone="no"?>
<!DOCTYPE svg PUBLIC "-//W3C//DTD SVG 1.1//EN" "http://www.w3.org/Graphics/SVG/1.1/DTD/svg11.dtd">
<svg width="100%" height="100%" viewBox="0 0 848 1017" version="1.1" xmlns="http://www.w3.org/2000/svg" xmlns:xlink="http://www.w3.org/1999/xlink" xml:space="preserve" xmlns:serif="http://www.serif.com/" style="fill-rule:evenodd;clip-rule:evenodd;stroke-linejoin:round;stroke-miterlimit:2;">
    <g transform="matrix(1,0,0,1,-3928.87067,-28)">
        <g id="LIBERTY-CORPS" serif:id="LIBERTY CORPS" transform="matrix(0.828125,0,0,0.662109,3928.87067,28)">
            <rect x="0" y="0" width="1024" height="1536" style="fill:none;"/>
            <g transform="matrix(12.58538,0,0,15.741007,-1527.343708,-7741.385439)">
                <path d="M175.333,530.514C178.429,531.417 181.363,533.458 182.63,538.008C191.499,538.008 199.915,536.705 199.383,550.798C198.7,551.193 197.493,552.369 197.493,552.369C197.493,552.369 196.293,561.647 195.303,563.409C194.314,565.171 191.317,566.171 191.317,566.171C189.762,569.168 187.547,571.001 184.978,572.212L184.978,564.691C182.605,565 180.112,565.469 177.852,566.597C179.367,568.171 180.882,570.052 180.767,570.282L180.767,571.916L177.833,579.519C178.439,581.166 178.723,582.96 178.167,584.192L173.124,581.914L176.63,572.833L176.601,572.799C174.339,573.209 173.049,572.844 172.115,572.454C170.773,575.185 169.932,578.913 169.872,584.036C171.103,585.287 172.101,586.805 172.101,588.157L166.568,588.157L166.024,578.438L163.803,577.425C161.062,576.175 159.044,573.74 158.324,570.815L157.683,568.205L142.085,568.029L142.085,584.502C142.085,584.502 144.154,586.178 144.154,588.157L140.108,588.157L135.671,572.867C135.671,572.867 133.031,575.254 130.926,575.771C130.455,577.352 129.568,584.553 129.568,584.553C129.568,584.553 130.744,585.698 131.214,588.157L126.554,588.157L126.554,569.041C128.914,568.317 130.54,566.634 130.54,563.886C130.54,562.153 130.602,556.689 130.648,552.885C130.49,551.803 129.993,551.671 129.534,552.11C128.978,552.641 128.03,553.379 128.03,555.583L128.03,560.645C130.616,565.054 126.554,567.499 126.554,567.499L126.554,554.239C126.554,551.881 127.723,550.697 130.696,548.996L141.533,543.279L143.044,529.134L142.912,529.134C142.772,528.929 142.695,528.807 142.706,528.6C142.719,528.39 142.693,527.883 142.706,527.689C142.706,527.689 142.498,527.574 142.435,527.441C142.372,527.308 142.449,526.56 142.446,526.44C142.446,526.321 142.606,526.243 142.859,526.166C142.876,525.388 143.527,525.138 144.17,525.127C144.445,525.123 144.694,525.123 144.983,525.125C145.276,525.123 145.522,525.123 145.798,525.127C146.442,525.138 147.093,525.388 147.109,526.166C147.362,526.243 147.524,526.321 147.521,526.44C147.519,526.56 147.595,527.308 147.532,527.441C147.472,527.574 147.262,527.689 147.262,527.689C147.273,527.883 147.249,528.39 147.262,528.6C147.272,528.807 147.196,528.929 147.058,529.134L146.922,529.134L147.552,537.485L149.475,536.853L151.374,511.641L151.24,511.642C151.102,511.437 151.025,511.317 151.038,511.108C151.048,510.898 151.025,510.392 151.036,510.197C151.036,510.197 150.826,510.082 150.764,509.949C150.702,509.814 150.778,509.066 150.777,508.948C150.774,508.828 150.935,508.751 151.189,508.67C151.204,507.894 151.856,507.646 152.499,507.635C152.777,507.63 153.022,507.63 153.314,507.633C153.604,507.63 153.853,507.63 154.127,507.635C154.77,507.646 155.422,507.894 155.439,508.67C155.692,508.751 155.852,508.828 155.85,508.948C155.848,509.066 155.926,509.814 155.863,509.949C155.8,510.082 155.59,510.197 155.59,510.197C155.602,510.392 155.58,510.898 155.59,511.108C155.601,511.317 155.526,511.437 155.387,511.642L155.252,511.641L156.923,533.814C158.132,533.405 159.484,533.198 160.678,533.163L161.632,532.849L164.021,501.289L163.727,501.289C163.423,500.841 163.251,500.573 163.276,500.112C163.301,499.65 163.251,498.538 163.275,498.107C163.275,498.107 162.814,497.859 162.677,497.563C162.541,497.269 162.709,495.626 162.705,495.362C162.701,495.1 163.055,494.928 163.612,494.753C163.648,493.047 165.081,492.499 166.494,492.473C167.105,492.462 167.647,492.467 168.286,492.468C168.926,492.467 169.47,492.462 170.082,492.473C171.49,492.499 172.925,493.047 172.962,494.753C173.517,494.928 173.873,495.1 173.867,495.362C173.863,495.626 174.03,497.269 173.896,497.563C173.758,497.859 173.297,498.107 173.297,498.107C173.324,498.538 173.271,499.65 173.295,500.112C173.32,500.573 173.152,500.841 172.848,501.289L172.554,501.289L175.333,530.514ZM186.576,540.462C186.576,540.462 183.686,540.907 183.686,544.954C183.686,549 187.571,550.93 190.278,550.93C192.986,550.93 193.885,546.433 190.715,546.433L190.715,546.433C188.429,546.433 186.576,544.672 186.576,542.501L186.576,540.462Z" style="fill:rgb(76,76,76);"/>
            </g>
        </g>
    </g>
</svg>
