<?xml version="1.0" encoding="UTF-8" standalone="no"?>
<!DOCTYPE svg PUBLIC "-//W3C//DTD SVG 1.1//EN" "http://www.w3.org/Graphics/SVG/1.1/DTD/svg11.dtd">
<svg width="100%" height="100%" viewBox="0 0 848 1153" version="1.1" xmlns="http://www.w3.org/2000/svg" xmlns:xlink="http://www.w3.org/1999/xlink" xml:space="preserve" xmlns:serif="http://www.serif.com/" style="fill-rule:evenodd;clip-rule:evenodd;stroke-linejoin:round;stroke-miterlimit:2;">
    <g id="monsters" transform="matrix(0.828125,0,0,0.750651,0,0)">
        <rect x="0" y="0" width="1024" height="1536" style="fill:none;"/>
        <g transform="matrix(1.207547,0,0,1.332177,0,0)">
            <g transform="matrix(2.81241,0,0,2.81241,-1503.907034,-544.54253)">
                <g id="final-beasto" serif:id="final beasto">
                    <path d="M618.22,458.012C570.531,436.821 537.872,393.822 537.872,344.272C537.872,321.8 544.589,300.676 556.38,282.321C555.191,289.406 554.573,296.683 554.573,304.103C554.573,361.57 591.677,410.44 643.216,428.041L641.142,419.544C657.539,427.221 672.549,430.947 685.5,431.691C698.451,430.947 713.461,427.221 729.858,419.544L727.784,428.041C779.323,410.44 816.427,361.57 816.427,304.103C816.427,296.683 815.809,289.406 814.62,282.321C826.411,300.676 833.128,321.8 833.128,344.272C833.128,393.822 800.469,436.821 752.78,458.012L792.91,458.012C784.143,475.933 759.122,489.64 732.04,492.505C738.543,512.03 749.137,536.866 766.239,563.345C762.016,564.61 754.303,564.341 749.45,563.345C751.032,571.447 753.814,582.461 761.871,595.211C735.71,593.111 710.382,584.499 685.5,573.729C660.618,584.499 635.29,593.111 609.129,595.211C617.186,582.461 619.968,571.447 621.55,563.345C616.697,564.341 608.984,564.61 604.761,563.345C621.863,536.866 632.457,512.03 638.96,492.505C611.878,489.64 586.857,475.933 578.09,458.012L618.22,458.012ZM675.382,511.245L676.385,511.245L676.385,511.177C682.449,510.787 688.526,510.783 694.615,511.173L694.615,511.245L695.677,511.245C698.97,511.481 702.267,511.832 705.568,512.3C704.661,511.42 703.553,510.616 702.281,509.899C701.738,506.062 698.895,502.647 694.615,500.814L694.615,507.074C691.789,506.438 688.694,506.093 685.5,506.093C682.306,506.093 679.211,506.438 676.385,507.074L676.385,500.814C672.105,502.647 669.262,506.062 668.719,509.899C667.447,510.616 666.339,511.42 665.432,512.3C668.745,511.834 672.062,511.482 675.382,511.245ZM701.973,478.42C711.483,486.872 718.322,483.987 722.409,479.971C722.411,479.972 722.427,479.98 722.427,479.98C722.502,479.903 722.569,479.824 722.643,479.746C722.654,479.734 722.667,479.723 722.68,479.71L722.678,479.708C726.66,475.464 727.21,470.992 732.757,471.138C723.247,462.687 716.408,465.571 712.322,469.586C712.32,469.585 712.304,469.577 712.304,469.577C712.228,469.655 712.163,469.733 712.088,469.811L712.052,469.846L712.052,469.851C708.072,474.093 707.52,478.567 701.973,478.42ZM669.027,478.42C663.48,478.567 662.928,474.093 658.948,469.851L658.948,469.846L658.912,469.811C658.837,469.733 658.772,469.655 658.696,469.577C658.696,469.577 658.68,469.585 658.678,469.586C654.592,465.571 647.753,462.687 638.243,471.138C643.79,470.992 644.34,475.464 648.322,479.708L648.32,479.71C648.333,479.723 648.346,479.734 648.357,479.746C648.431,479.824 648.498,479.903 648.573,479.98C648.573,479.98 648.589,479.972 648.591,479.971C652.678,483.987 659.517,486.872 669.027,478.42ZM700.202,490.409C699.953,488.05 697.955,486.209 695.53,486.209C692.938,486.209 690.833,488.314 690.833,490.906C690.833,492.341 691.478,493.627 692.494,494.489C692.477,494.326 692.468,494.16 692.468,493.992C692.468,491.399 694.573,489.294 697.165,489.294C698.323,489.294 699.383,489.714 700.202,490.409ZM697.862,455.222C689.914,452.999 686.363,446.645 685.097,440.631L685.097,440.612L685.095,440.621L685.093,440.612L685.093,440.631C683.826,446.645 680.275,452.999 672.328,455.222C678.879,457.647 682.02,460.744 685.093,472.475L685.093,472.491L685.095,472.483L685.097,472.491L685.097,472.475C688.17,460.744 691.311,457.647 697.862,455.222ZM670.798,490.409C671.617,489.714 672.677,489.294 673.835,489.294C676.427,489.294 678.532,491.399 678.532,493.992C678.532,494.16 678.523,494.326 678.506,494.489C679.522,493.627 680.167,492.341 680.167,490.906C680.167,488.314 678.062,486.209 675.47,486.209C673.045,486.209 671.047,488.05 670.798,490.409ZM685.5,202C740.416,202 785,246.584 785,301.5C785,356.416 740.416,401 685.5,401C630.584,401 586,356.416 586,301.5C586,246.584 630.584,202 685.5,202Z" style="fill:rgb(76,76,76);"/>
                </g>
            </g>
        </g>
    </g>
</svg>
