<?xml version="1.0" encoding="UTF-8" standalone="no"?>
<!DOCTYPE svg PUBLIC "-//W3C//DTD SVG 1.1//EN" "http://www.w3.org/Graphics/SVG/1.1/DTD/svg11.dtd">
<svg width="100%" height="100%" viewBox="0 0 848 1017" version="1.1" xmlns="http://www.w3.org/2000/svg" xmlns:xlink="http://www.w3.org/1999/xlink" xml:space="preserve" xmlns:serif="http://www.serif.com/" style="fill-rule:evenodd;clip-rule:evenodd;stroke-linejoin:round;stroke-miterlimit:2;">
    <g transform="matrix(1,0,0,1,-4840.68213,-28)">
        <g id="monster-rangers" serif:id="monster rangers" transform="matrix(0.828125,0,0,0.662109,4840.68213,28)">
            <rect x="0" y="0" width="1024" height="1536" style="fill:none;"/>
            <g transform="matrix(0.769117,0,0,0.961964,-3694.410437,-3995.844888)">
                <path d="M6114.376,5265.332C6114.343,5282.091 6108.554,5300.062 6099.35,5316.081C6090.096,5332.049 6077.442,5346.048 6062.938,5354.462L5520.588,5667.551C5506.067,5675.931 5487.591,5679.885 5469.15,5679.885C5450.725,5679.885 5432.249,5675.931 5417.694,5667.551L4875.328,5354.462C4860.84,5346.048 4848.187,5332.049 4838.949,5316.081C4829.745,5300.062 4823.94,5282.091 4823.906,5265.332L4823.906,4639.069C4823.94,4622.343 4829.745,4604.373 4838.949,4588.371C4848.187,4572.386 4860.84,4558.386 4875.328,4549.973L5417.694,4236.85C5432.249,4228.504 5450.725,4224.533 5469.15,4224.533C5487.591,4224.533 5506.067,4228.504 5520.588,4236.85L6062.938,4549.973C6077.442,4558.386 6090.096,4572.386 6099.35,4588.371C6108.554,4604.373 6114.343,4622.343 6114.376,4639.069L6114.376,5265.332ZM6060.134,4701.734L6060.134,4665.393C6060.103,4650.074 6054.801,4633.614 6046.371,4618.957C6037.894,4604.316 6026.305,4591.493 6013.02,4583.787L5516.263,4296.987C5502.963,4289.343 5486.04,4285.706 5469.149,4285.706C5452.273,4285.706 5435.351,4289.343 5422.019,4296.987L4925.248,4583.787C4911.978,4591.493 4900.388,4604.316 4891.927,4618.957C4883.497,4633.614 4878.18,4650.074 4878.149,4665.393L4878.149,4950.006L4877.563,4950.672L4876.986,4951.336L4876.966,4951.36C4876.598,4951.786 4876.236,4952.211 4875.878,4952.637L4875.856,4952.663L4875.303,4953.325L4875.278,4953.356C4874.923,4953.784 4874.573,4954.212 4874.228,4954.639L4874.223,4954.646L4873.696,4955.305L4873.177,4955.963L4873.111,4956.046L4872.958,4956.242L4872.661,4956.626L4872.456,4956.893L4872.414,4956.948L4872.367,4957.009L4872.229,4957.19L4872.164,4957.276L4872.14,4957.307L4872.076,4957.391L4871.97,4957.532L4871.916,4957.603L4871.874,4957.659L4871.787,4957.774L4871.708,4957.88L4871.67,4957.931L4871.613,4958.007L4871.502,4958.156L4871.446,4958.232L4871.426,4958.258L4871.36,4958.347L4871.219,4958.537L4870.94,4958.918L4870.758,4959.168L4870.708,4959.238L4870.702,4959.246L4870.663,4959.299L4870.537,4959.474L4870.472,4959.564L4870.448,4959.597L4870.389,4959.68L4870.292,4959.816L4870.239,4959.89L4870.198,4959.948L4870.118,4960.06L4870.045,4960.163L4870.008,4960.215L4869.952,4960.295L4869.85,4960.44L4869.799,4960.513L4869.78,4960.54L4869.714,4960.634L4869.585,4960.819L4869.323,4961.198L4869.163,4961.432L4869.106,4961.514L4869.099,4961.524L4869.064,4961.577L4868.95,4961.745L4868.886,4961.838L4868.862,4961.874L4868.807,4961.955L4868.719,4962.087L4868.668,4962.162L4868.628,4962.223L4868.554,4962.333L4868.487,4962.433L4868.452,4962.486L4868.397,4962.569L4868.303,4962.71L4868.257,4962.781L4868.238,4962.809L4868.174,4962.908L4868.056,4963.087L4867.811,4963.464L4867.671,4963.683L4867.61,4963.777L4867.603,4963.789L4867.57,4963.84L4867.467,4964.002L4867.405,4964.099L4867.382,4964.137L4867.331,4964.216L4867.251,4964.344L4867.202,4964.421L4867.163,4964.483L4867.096,4964.592L4867.035,4964.689L4867.002,4964.742L4866.949,4964.828L4866.863,4964.967L4866.821,4965.035L4866.803,4965.064L4866.74,4965.167L4866.633,4965.341L4866.607,4965.384L4866.57,4965.446L4866.407,4965.715L4866.283,4965.921L4866.221,4966.025L4866.213,4966.039L4866.183,4966.089L4866.09,4966.245L4866.031,4966.345L4866.008,4966.385L4865.962,4966.462L4865.89,4966.586L4865.844,4966.665L4865.806,4966.729L4865.744,4966.835L4865.69,4966.929L4865.659,4966.984L4865.608,4967.072L4865.53,4967.208L4865.492,4967.273L4865.475,4967.303L4865.414,4967.411L4865.318,4967.58L4865.295,4967.622L4865.251,4967.699L4865.109,4967.951L4865.002,4968.146L4864.939,4968.258L4864.931,4968.273L4864.904,4968.322L4864.821,4968.473L4864.765,4968.576L4864.743,4968.617L4864.701,4968.693L4864.636,4968.813L4864.593,4968.893L4864.557,4968.959L4864.501,4969.063L4864.453,4969.154L4864.423,4969.21L4864.375,4969.301L4864.305,4969.433L4864.272,4969.496L4864.256,4969.527L4864.197,4969.639L4864.111,4969.803L4864.09,4969.843L4864.042,4969.937L4863.921,4970.171L4863.827,4970.355L4863.766,4970.475L4863.758,4970.491L4863.733,4970.54L4863.66,4970.685L4863.608,4970.79L4863.586,4970.833L4863.549,4970.908L4863.491,4971.024L4863.451,4971.105L4863.418,4971.173L4863.367,4971.275L4863.325,4971.363L4863.297,4971.419L4863.252,4971.513L4863.189,4971.642L4863.16,4971.703L4863.145,4971.734L4863.09,4971.85L4863.014,4972.009L4862.995,4972.048L4862.943,4972.16L4862.842,4972.375L4862.761,4972.549L4862.703,4972.674L4862.695,4972.693L4862.673,4972.74L4862.608,4972.881L4862.56,4972.987L4862.54,4973.031L4862.507,4973.105L4862.456,4973.218L4862.419,4973.3L4862.388,4973.37L4862.344,4973.47L4862.306,4973.555L4862.281,4973.612L4862.239,4973.707L4862.184,4973.834L4862.158,4973.893L4862.145,4973.924L4862.093,4974.043L4862.027,4974.197L4862.011,4974.235L4861.956,4974.366L4861.873,4974.561L4861.805,4974.726L4861.75,4974.857L4861.742,4974.876L4861.723,4974.923L4861.667,4975.059L4861.623,4975.167L4861.605,4975.212L4861.575,4975.285L4861.531,4975.395L4861.498,4975.477L4861.47,4975.548L4861.431,4975.647L4861.398,4975.73L4861.376,4975.786L4861.338,4975.884L4861.29,4976.008L4861.268,4976.065L4861.256,4976.096L4861.209,4976.219L4861.151,4976.368L4861.138,4976.404L4861.081,4976.555L4861.016,4976.728L4860.959,4976.886L4860.909,4977.021L4860.902,4977.042L4860.885,4977.088L4860.837,4977.22L4860.798,4977.328L4860.782,4977.375L4860.756,4977.447L4860.719,4977.553L4860.689,4977.636L4860.664,4977.708L4860.63,4977.805L4860.603,4977.886L4860.583,4977.942L4860.549,4978.041L4860.508,4978.163L4860.489,4978.218L4860.479,4978.249L4860.437,4978.375L4860.389,4978.52L4860.377,4978.555L4860.321,4978.728L4860.272,4978.877L4860.224,4979.028L4860.181,4979.166L4860.174,4979.188L4860.159,4979.233L4860.12,4979.362L4860.086,4979.471L4860.071,4979.518L4860.05,4979.589L4860.018,4979.692L4859.993,4979.775L4859.971,4979.849L4859.943,4979.944L4859.92,4980.022L4859.903,4980.079L4859.874,4980.179L4859.839,4980.299L4859.824,4980.352L4859.815,4980.383L4859.779,4980.511L4859.739,4980.653L4859.73,4980.686L4859.675,4980.884L4859.642,4981.006L4859.603,4981.151L4859.566,4981.291L4859.56,4981.314L4859.548,4981.359L4859.516,4981.484L4859.487,4981.593L4859.475,4981.642L4859.457,4981.711L4859.432,4981.812L4859.411,4981.895L4859.393,4981.969L4859.37,4982.063L4859.351,4982.139L4859.338,4982.196L4859.313,4982.297L4859.285,4982.414L4859.273,4982.466L4859.266,4982.496L4859.236,4982.627L4859.204,4982.765L4859.197,4982.797L4859.146,4983.024L4859.126,4983.115L4859.096,4983.255L4859.066,4983.396L4859.061,4983.42L4859.051,4983.464L4859.027,4983.586L4859.004,4983.695L4858.994,4983.744L4858.98,4983.813L4858.961,4983.912L4858.944,4983.994L4858.93,4984.069L4858.912,4984.161L4858.898,4984.236L4858.887,4984.292L4858.868,4984.394L4858.847,4984.509L4858.838,4984.559L4858.832,4984.589L4858.809,4984.722L4858.785,4984.856L4858.78,4984.887L4858.735,4985.148L4858.726,4985.203L4858.704,4985.338L4858.682,4985.48L4858.678,4985.504L4858.671,4985.548L4858.653,4985.667L4858.636,4985.776L4858.629,4985.826L4858.619,4985.894L4858.605,4985.99L4858.593,4986.071L4858.583,4986.147L4858.57,4986.238L4858.56,4986.311L4858.553,4986.366L4858.539,4986.469L4858.524,4986.582L4858.518,4986.631L4858.514,4986.661L4858.498,4986.794L4858.482,4986.926L4858.443,4987.268L4858.429,4987.401L4858.414,4987.542L4858.412,4987.567L4858.407,4987.611L4858.396,4987.727L4858.385,4987.834L4858.381,4987.885L4858.375,4987.952L4858.366,4988.046L4858.359,4988.127L4858.353,4988.203L4858.345,4988.293L4858.34,4988.364L4858.335,4988.418L4858.328,4988.521L4858.319,4988.633L4858.316,4988.68L4858.314,4988.71L4858.305,4988.844L4858.297,4988.973L4858.277,4989.312L4858.271,4989.441L4858.264,4989.581L4858.263,4989.607L4858.261,4989.65L4858.257,4989.764L4858.253,4989.87L4858.251,4989.921L4858.248,4989.988L4858.246,4990.08L4858.243,4990.159L4858.241,4990.235L4858.239,4990.325L4858.238,4990.394L4858.236,4990.448L4858.235,4990.55L4858.233,4990.661L4858.232,4990.707L4858.232,4990.736L4858.231,4990.87L4858.23,4990.997L4858.23,4991.332L4858.232,4991.459L4858.233,4991.597L4858.234,4991.623L4858.234,4991.666L4858.237,4991.778L4858.239,4991.883L4858.24,4991.934L4858.241,4992L4858.244,4992.09L4858.246,4992.168L4858.249,4992.244L4858.252,4992.333L4858.255,4992.401L4858.257,4992.454L4858.261,4992.556L4858.266,4992.665L4858.268,4992.71L4858.269,4992.738L4858.276,4992.872L4858.283,4992.997L4858.303,4993.328L4858.312,4993.453L4858.322,4993.589L4858.324,4993.615L4858.327,4993.658L4858.336,4993.768L4858.345,4993.871L4858.349,4993.922L4858.355,4993.988L4858.363,4994.077L4858.37,4994.153L4858.377,4994.229L4858.385,4994.317L4858.392,4994.384L4858.397,4994.435L4858.408,4994.536L4858.419,4994.645L4858.424,4994.689L4858.427,4994.716L4858.442,4994.848L4858.456,4994.973L4858.497,4995.3L4858.514,4995.424L4858.532,4995.556L4858.535,4995.582L4858.541,4995.626L4858.557,4995.734L4858.572,4995.835L4858.579,4995.885L4858.589,4995.951L4858.603,4996.039L4858.614,4996.113L4858.626,4996.188L4858.64,4996.276L4858.651,4996.341L4858.659,4996.391L4858.676,4996.491L4858.694,4996.6L4858.702,4996.643L4858.706,4996.669L4858.73,4996.799L4858.752,4996.923L4858.813,4997.246L4858.838,4997.369L4858.863,4997.497L4858.869,4997.524L4858.877,4997.567L4858.9,4997.674L4858.92,4997.773L4858.931,4997.823L4858.945,4997.888L4858.964,4997.975L4858.98,4998.047L4858.997,4998.121L4859.017,4998.209L4859.032,4998.273L4859.043,4998.322L4859.066,4998.42L4859.091,4998.528L4859.102,4998.571L4859.108,4998.595L4859.139,4998.723L4859.17,4998.847L4859.251,4999.165L4859.284,4999.288L4859.317,4999.413L4859.325,4999.439L4859.336,4999.483L4859.366,4999.589L4859.392,4999.684L4859.406,4999.733L4859.425,4999.799L4859.45,4999.885L4859.47,4999.955L4859.491,5000.028L4859.517,5000.115L4859.536,5000.179L4859.55,5000.226L4859.579,5000.322L4859.612,5000.43L4859.625,5000.472L4859.632,5000.495L4859.672,5000.62L4859.711,5000.745L4859.813,5001.058L4859.855,5001.182L4859.895,5001.301L4859.904,5001.327L4859.919,5001.371L4859.956,5001.477L4859.988,5001.569L4860.005,5001.617L4860.029,5001.683L4860.059,5001.768L4860.083,5001.836L4860.11,5001.907L4860.141,5001.994L4860.165,5002.057L4860.181,5002.102L4860.217,5002.197L4860.258,5002.305L4860.273,5002.346L4860.282,5002.368L4860.329,5002.489L4860.377,5002.615L4860.49,5002.898L4860.501,5002.924L4860.551,5003.048L4860.598,5003.162L4860.609,5003.187L4860.627,5003.232L4860.672,5003.337L4860.709,5003.426L4860.729,5003.473L4860.758,5003.539L4860.794,5003.623L4860.822,5003.689L4860.853,5003.758L4860.891,5003.846L4860.919,5003.908L4860.938,5003.951L4860.98,5004.043L4861.028,5004.152L4861.047,5004.192L4861.057,5004.213L4861.11,5004.329L4861.169,5004.456L4861.222,5004.567L4861.301,5004.734L4861.314,5004.761L4861.374,5004.885L4861.427,5004.994L4861.439,5005.019L4861.461,5005.064L4861.514,5005.168L4861.556,5005.254L4861.579,5005.3L4861.613,5005.367L4861.655,5005.45L4861.687,5005.513L4861.722,5005.58L4861.768,5005.668L4861.8,5005.73L4861.821,5005.771L4861.868,5005.86L4861.926,5005.969L4861.948,5006.009L4861.958,5006.029L4862.017,5006.139L4862.088,5006.269L4862.17,5006.418L4862.239,5006.542L4862.253,5006.569L4862.325,5006.695L4862.383,5006.798L4862.397,5006.821L4862.422,5006.867L4862.483,5006.971L4862.53,5007.053L4862.556,5007.098L4862.595,5007.165L4862.644,5007.247L4862.68,5007.308L4862.719,5007.373L4862.771,5007.461L4862.808,5007.523L4862.832,5007.561L4862.884,5007.647L4862.951,5007.757L4862.976,5007.797L4862.986,5007.815L4863.051,5007.918L4863.134,5008.053L4863.247,5008.231L4863.321,5008.347L4863.404,5008.474L4863.467,5008.571L4863.482,5008.594L4863.512,5008.64L4863.581,5008.744L4863.632,5008.822L4863.661,5008.865L4863.706,5008.933L4863.762,5009.015L4863.8,5009.072L4863.843,5009.135L4863.903,5009.225L4863.946,5009.285L4863.97,5009.322L4864.027,5009.404L4864.105,5009.515L4864.133,5009.555L4864.144,5009.571L4864.212,5009.667L4864.31,5009.805L4864.455,5010.007L4864.518,5010.094L4864.613,5010.224L4864.679,5010.314L4864.695,5010.336L4864.73,5010.383L4864.808,5010.487L4864.863,5010.56L4864.894,5010.602L4864.946,5010.67L4865.009,5010.752L4865.05,5010.806L4865.096,5010.867L4865.165,5010.957L4865.212,5011.017L4865.239,5011.051L4865.3,5011.129L4865.388,5011.242L4865.419,5011.282L4865.43,5011.296L4865.5,5011.384L4865.614,5011.527L4865.845,5011.811L4865.953,5011.942L4866.022,5012.026L4866.039,5012.046L4866.078,5012.094L4866.167,5012.199L4866.224,5012.267L4866.258,5012.307L4866.316,5012.376L4866.386,5012.458L4866.429,5012.509L4866.479,5012.566L4866.557,5012.657L4866.61,5012.718L4866.637,5012.749L4866.701,5012.823L4866.802,5012.938L4866.837,5012.977L4866.848,5012.989L4866.917,5013.068L4867.05,5013.217L4867.302,5013.495L4867.425,5013.629L4867.495,5013.705L4867.513,5013.724L4867.558,5013.773L4867.657,5013.878L4867.716,5013.942L4867.752,5013.98L4867.817,5014.05L4867.896,5014.132L4867.94,5014.179L4867.993,5014.233L4868.081,5014.325L4868.139,5014.386L4868.167,5014.415L4868.234,5014.483L4868.347,5014.6L4868.387,5014.64L4868.396,5014.65L4868.464,5014.718C4868.65,5014.907 4868.839,5015.095 4869.03,5015.283L4869.101,5015.352L4869.119,5015.37L4869.17,5015.419L4869.279,5015.525L4869.341,5015.584L4869.378,5015.62L4869.451,5015.69L4869.538,5015.772L4869.584,5015.816L4869.638,5015.867L4869.737,5015.961L4869.801,5016.021L4869.829,5016.047L4869.897,5016.111L4870.025,5016.23L4870.069,5016.27L4870.078,5016.278L4870.139,5016.334C4870.347,5016.525 4870.557,5016.714 4870.77,5016.903L4870.839,5016.965L4870.858,5016.982L4870.915,5017.032L4871.036,5017.138L4871.098,5017.193L4871.136,5017.226L4871.218,5017.298L4871.314,5017.38L4871.36,5017.42L4871.416,5017.468L4871.526,5017.562L4871.598,5017.623L4871.625,5017.646L4871.694,5017.704L4871.837,5017.826L4871.885,5017.866L4871.893,5017.872L4871.946,5017.916C4872.175,5018.108 4872.408,5018.299 4872.644,5018.49L4872.712,5018.544L4872.73,5018.559L4872.794,5018.611L4872.928,5018.717L4872.99,5018.767L4873.029,5018.798L4873.12,5018.87L4873.225,5018.953L4873.271,5018.989L4873.328,5019.033L4873.45,5019.129L4873.529,5019.19L4873.555,5019.211L4873.623,5019.262L4873.784,5019.387L4873.837,5019.427L4873.842,5019.431L4873.882,5019.462C4874.137,5019.656 4874.394,5019.849 4874.655,5020.042L4874.719,5020.089L4874.737,5020.102L4874.808,5020.154L4874.955,5020.261L4875.017,5020.306L4875.055,5020.334L4875.157,5020.408L4875.272,5020.49L4875.318,5020.523L4875.374,5020.563L4875.51,5020.661L4875.596,5020.722L4875.621,5020.74L4875.686,5020.785L4875.866,5020.913L4875.95,5020.971C4876.231,5021.167 4876.516,5021.363 4876.804,5021.558L4876.863,5021.597L4876.879,5021.608L4876.958,5021.662L4877.12,5021.77L4877.18,5021.81L4877.218,5021.835L4877.33,5021.91L4877.456,5021.992L4877.5,5022.022L4877.555,5022.058L4877.706,5022.156L4877.8,5022.217L4877.823,5022.233L4877.884,5022.272L4878.085,5022.402L4878.149,5022.443L4878.149,5239.009C4878.18,5254.359 4883.497,5270.819 4891.927,5285.491C4900.388,5300.117 4911.978,5312.94 4925.248,5320.646L5422.019,5607.415C5435.351,5615.09 5452.273,5618.712 5469.149,5618.712C5486.04,5618.712 5502.963,5615.09 5516.263,5607.415L6013.02,5320.646C6026.305,5312.94 6037.894,5300.117 6046.371,5285.491C6054.801,5270.819 6060.103,5254.359 6060.134,5239.009L6060.134,4789.555L6060.511,4789.246L6060.656,4789.126L6061.006,4788.837L6061.175,4788.697L6061.197,4788.678L6061.231,4788.65L6061.497,4788.429L6061.692,4788.266L6061.722,4788.241L6061.757,4788.211L6061.984,4788.022L6062.206,4787.834L6062.242,4787.804L6062.274,4787.777L6062.466,4787.615L6062.721,4787.399L6062.758,4787.367L6062.782,4787.347L6062.945,4787.208L6063.237,4786.959L6063.269,4786.932L6063.284,4786.918L6063.42,4786.802L6063.76,4786.51L6063.78,4786.492C6064.786,4785.624 6065.765,4784.759 6066.715,4783.899L6067.073,4783.575L6067.177,4783.48L6067.189,4783.469L6067.221,4783.44L6067.512,4783.174L6067.635,4783.06L6067.658,4783.039L6067.702,4782.999L6067.946,4782.773L6068.09,4782.64L6068.123,4782.609L6068.169,4782.567L6068.377,4782.374L6068.542,4782.219L6068.583,4782.181L6068.626,4782.14L6068.804,4781.974L6068.993,4781.796L6069.039,4781.753L6069.076,4781.717L6069.226,4781.576L6069.442,4781.371L6069.49,4781.325L6069.519,4781.297L6069.645,4781.177L6069.892,4780.941L6069.936,4780.899L6069.956,4780.879L6070.06,4780.78L6070.347,4780.502L6070.378,4780.472L6070.388,4780.463C6071.26,4779.618 6072.105,4778.777 6072.924,4777.94L6072.934,4777.929L6072.968,4777.894L6073.236,4777.62L6073.323,4777.529L6073.344,4777.508L6073.393,4777.457L6073.615,4777.227L6073.719,4777.119L6073.75,4777.087L6073.803,4777.031L6073.991,4776.835L6074.111,4776.708L6074.151,4776.667L6074.202,4776.613L6074.362,4776.444L6074.501,4776.297L6074.548,4776.247L6074.594,4776.198L6074.73,4776.053L6074.887,4775.884L6074.94,4775.828L6074.979,4775.786L6075.094,4775.663L6075.273,4775.469L6075.327,4775.41L6075.358,4775.377L6075.453,4775.273L6075.658,4775.05L6075.71,4774.993L6075.732,4774.969L6075.809,4774.884L6076.048,4774.621L6076.089,4774.576L6076.101,4774.562L6076.161,4774.496L6076.452,4774.172L6076.465,4774.157C6076.958,4773.606 6077.439,4773.057 6077.908,4772.51L6077.915,4772.501L6077.947,4772.464L6078.192,4772.178L6078.25,4772.109L6078.267,4772.089L6078.318,4772.028L6078.517,4771.794L6078.588,4771.708L6078.615,4771.677L6078.671,4771.609L6078.838,4771.41L6078.923,4771.307L6078.958,4771.265L6079.013,4771.198L6079.155,4771.027L6079.254,4770.906L6079.296,4770.854L6079.347,4770.792L6079.468,4770.644L6079.581,4770.505L6079.631,4770.444L6079.675,4770.389L6079.778,4770.262L6079.906,4770.102L6079.96,4770.035L6079.998,4769.988L6080.083,4769.881L6080.229,4769.698L6080.286,4769.626L6080.315,4769.589L6080.385,4769.5L6080.551,4769.289L6080.607,4769.218L6080.628,4769.191L6080.683,4769.12L6080.876,4768.872L6080.923,4768.811L6080.935,4768.795L6080.977,4768.741L6081.214,4768.432L6081.239,4768.4C6081.546,4767.997 6081.847,4767.594 6082.142,4767.193L6082.391,4766.852L6082.428,4766.802L6082.44,4766.785L6082.489,4766.717L6082.663,4766.476L6082.71,4766.41L6082.73,4766.382L6082.786,4766.303L6082.93,4766.101L6082.988,4766.019L6083.016,4765.979L6083.072,4765.9L6083.194,4765.727L6083.262,4765.629L6083.298,4765.577L6083.35,4765.502L6083.454,4765.353L6083.533,4765.238L6083.575,4765.176L6083.622,4765.108L6083.71,4764.979L6083.8,4764.847L6083.848,4764.776L6083.888,4764.716L6083.963,4764.606L6084.064,4764.455L6084.116,4764.377L6084.15,4764.326L6084.211,4764.234L6084.325,4764.061L6084.38,4763.978L6084.406,4763.938L6084.456,4763.863L6084.585,4763.664L6084.64,4763.58L6084.659,4763.551L6084.697,4763.492L6084.847,4763.258L6084.896,4763.182L6084.907,4763.165L6084.935,4763.121L6085.12,4762.828L6085.147,4762.785L6085.151,4762.78C6085.315,4762.517 6085.477,4762.256 6085.636,4761.994L6085.847,4761.646L6085.867,4761.612L6085.875,4761.599L6085.917,4761.529L6086.066,4761.279L6086.094,4761.23L6086.109,4761.206L6086.16,4761.117L6086.281,4760.912L6086.317,4760.849L6086.339,4760.812L6086.391,4760.722L6086.492,4760.547L6086.536,4760.468L6086.564,4760.42L6086.613,4760.333L6086.699,4760.181L6086.752,4760.088L6086.785,4760.028L6086.83,4759.948L6086.903,4759.817L6086.963,4759.707L6087.002,4759.637L6087.041,4759.565L6087.103,4759.453L6087.171,4759.327L6087.215,4759.247L6087.248,4759.185L6087.3,4759.089L6087.376,4758.946L6087.423,4758.858L6087.45,4758.806L6087.492,4758.726L6087.578,4758.563L6087.627,4758.469L6087.648,4758.428L6087.681,4758.364L6087.777,4758.177L6087.827,4758.081L6087.842,4758.051L6087.867,4758.003L6087.977,4757.784L6088.022,4757.694L6088.031,4757.675L6088.048,4757.642L6088.185,4757.365L6088.214,4757.307L6088.217,4757.301C6088.341,4757.048 6088.462,4756.796 6088.58,4756.544L6088.584,4756.536L6088.615,4756.47L6088.738,4756.205L6088.753,4756.172L6088.763,4756.152L6088.806,4756.056L6088.901,4755.847L6088.922,4755.8L6088.937,4755.768L6088.982,4755.666L6089.061,4755.49L6089.088,4755.429L6089.107,4755.386L6089.15,4755.286L6089.217,4755.134L6089.249,4755.059L6089.273,4755.003L6089.313,4754.911L6089.369,4754.778L6089.407,4754.689L6089.435,4754.622L6089.47,4754.538L6089.518,4754.423L6089.561,4754.319L6089.593,4754.242L6089.623,4754.167L6089.663,4754.069L6089.711,4753.949L6089.746,4753.862L6089.771,4753.798L6089.805,4753.715L6089.857,4753.579L6089.896,4753.483L6089.916,4753.43L6089.942,4753.362L6090.001,4753.208L6090.041,4753.104L6090.056,4753.063L6090.076,4753.009L6090.141,4752.835L6090.182,4752.727L6090.193,4752.697L6090.207,4752.658L6090.281,4752.454L6090.318,4752.35L6090.325,4752.332L6090.334,4752.307L6090.426,4752.046L6090.451,4751.974L6090.579,4751.599L6090.591,4751.565L6090.693,4751.257L6090.699,4751.238L6090.704,4751.224L6090.737,4751.122L6090.805,4750.909L6090.816,4750.877L6090.824,4750.85L6090.859,4750.738L6090.914,4750.561L6090.928,4750.516L6090.94,4750.477L6090.973,4750.367L6091.02,4750.214L6091.037,4750.155L6091.052,4750.105L6091.082,4750.001L6091.121,4749.867L6091.142,4749.795L6091.16,4749.733L6091.186,4749.638L6091.22,4749.522L6091.243,4749.436L6091.263,4749.363L6091.286,4749.278L6091.314,4749.176L6091.34,4749.077L6091.363,4748.993L6091.382,4748.918L6091.405,4748.832L6091.434,4748.719L6091.458,4748.624L6091.474,4748.56L6091.492,4748.488L6091.524,4748.36L6091.55,4748.255L6091.562,4748.203L6091.576,4748.145L6091.61,4748.001L6091.637,4747.888L6091.646,4747.847L6091.657,4747.803L6091.693,4747.639L6091.72,4747.521L6091.726,4747.492L6091.733,4747.461L6091.774,4747.272L6091.799,4747.155L6091.803,4747.137L6091.807,4747.12L6091.857,4746.876L6091.874,4746.79L6091.945,4746.425L6091.964,4746.324L6092.005,4746.101L6092.008,4746.082L6092.012,4746.061L6092.033,4745.94L6092.064,4745.762L6092.069,4745.731L6092.075,4745.699L6092.094,4745.578L6092.119,4745.425L6092.126,4745.38L6092.133,4745.336L6092.151,4745.222L6092.171,4745.088L6092.18,4745.031L6092.188,4744.975L6092.203,4744.87L6092.22,4744.751L6092.229,4744.682L6092.239,4744.615L6092.251,4744.519L6092.265,4744.416L6092.275,4744.334L6092.285,4744.255L6092.295,4744.17L6092.306,4744.081L6092.317,4743.986L6092.328,4743.896L6092.336,4743.822L6092.344,4743.747L6092.356,4743.638L6092.366,4743.538L6092.372,4743.475L6092.379,4743.413L6092.39,4743.291L6092.401,4743.18L6092.405,4743.129L6092.41,4743.08L6092.421,4742.944L6092.431,4742.824L6092.434,4742.784L6092.437,4742.748L6092.448,4742.596L6092.458,4742.468L6092.46,4742.44L6092.461,4742.417L6092.472,4742.242L6092.48,4742.113L6092.482,4742.086L6092.493,4741.858L6092.499,4741.759L6092.501,4741.703L6092.512,4741.426L6092.513,4741.405L6092.517,4741.275L6092.522,4741.098L6092.523,4741.078L6092.524,4741.053L6092.526,4740.922L6092.529,4740.77L6092.529,4740.738L6092.53,4740.701L6092.531,4740.577L6092.532,4740.442L6092.532,4740.399L6092.533,4740.35L6092.532,4740.235L6092.532,4740.116L6092.531,4740.06L6092.531,4740L6092.529,4739.895L6092.528,4739.79L6092.527,4739.722L6092.526,4739.651L6092.523,4739.557L6092.521,4739.465L6092.518,4739.385L6092.516,4739.302L6092.513,4739.219L6092.51,4739.14L6092.506,4739.049L6092.503,4738.955L6092.499,4738.883L6092.496,4738.817L6092.491,4738.713L6092.485,4738.608L6092.482,4738.548L6092.479,4738.494L6092.471,4738.378L6092.464,4738.262L6092.461,4738.213L6092.458,4738.171L6092.448,4738.043L6092.439,4737.916L6092.436,4737.879L6092.434,4737.85L6092.421,4737.707L6092.41,4737.572L6092.407,4737.546L6092.406,4737.529L6092.39,4737.369L6092.377,4737.228L6092.375,4737.209L6092.352,4736.998L6092.34,4736.886L6092.324,4736.75L6092.302,4736.57L6092.299,4736.544L6092.28,4736.402L6092.261,4736.252L6092.258,4736.232L6092.254,4736.203L6092.235,4736.069L6092.216,4735.935L6092.211,4735.903L6092.205,4735.862L6092.186,4735.739L6092.168,4735.618L6092.161,4735.575L6092.153,4735.523L6092.134,4735.41L6092.116,4735.303L6092.107,4735.248L6092.096,4735.184L6092.078,4735.082L6092.061,4734.987L6092.049,4734.921L6092.036,4734.846L6092.018,4734.756L6092.003,4734.673L6091.988,4734.596L6091.972,4734.509L6091.955,4734.43L6091.942,4734.359L6091.923,4734.271L6091.903,4734.173L6091.889,4734.105L6091.876,4734.046L6091.855,4733.946L6091.831,4733.838L6091.818,4733.781L6091.808,4733.734L6091.782,4733.623L6091.755,4733.504L6091.745,4733.458L6091.736,4733.423L6091.707,4733.3L6091.676,4733.17L6091.667,4733.136L6091.661,4733.112L6091.627,4732.978L6091.592,4732.837L6091.586,4732.814L6091.583,4732.802L6091.544,4732.655L6091.504,4732.505L6091.413,4732.174L6091.369,4732.023L6091.327,4731.876L6091.324,4731.866L6091.318,4731.844L6091.275,4731.702L6091.236,4731.569L6091.229,4731.547L6091.219,4731.515L6091.178,4731.384L6091.14,4731.263L6091.13,4731.23L6091.116,4731.186L6091.077,4731.066L6091.042,4730.957L6091.027,4730.913L6091.01,4730.859L6090.973,4730.75L6090.94,4730.652L6090.921,4730.598L6090.899,4730.532L6090.865,4730.434L6090.835,4730.348L6090.812,4730.283L6090.785,4730.206L6090.754,4730.12L6090.727,4730.045L6090.699,4729.968L6090.667,4729.881L6090.639,4729.806L6090.615,4729.742L6090.582,4729.655L6090.545,4729.556L6090.52,4729.493L6090.5,4729.44L6090.462,4729.343L6090.419,4729.233L6090.398,4729.18L6090.382,4729.139L6090.338,4729.031L6090.29,4728.911L6090.272,4728.869L6090.26,4728.839L6090.211,4728.72L6090.156,4728.589L6090.143,4728.558L6090.135,4728.539L6090.08,4728.41L6090.019,4728.268L6090.007,4728.24L6089.947,4728.103L6089.879,4727.948L6089.801,4727.777L6089.734,4727.629L6089.665,4727.481L6089.603,4727.348L6089.597,4727.335L6089.586,4727.311L6089.52,4727.175L6089.462,4727.052L6089.45,4727.029L6089.434,4726.994L6089.372,4726.869L6089.317,4726.757L6089.3,4726.723L6089.278,4726.677L6089.221,4726.564L6089.17,4726.463L6089.147,4726.418L6089.118,4726.362L6089.065,4726.259L6089.019,4726.169L6088.99,4726.114L6088.955,4726.047L6088.906,4725.956L6088.865,4725.876L6088.829,4725.81L6088.788,4725.733L6088.744,4725.653L6088.707,4725.584L6088.665,4725.508L6088.617,4725.42L6088.578,4725.351L6088.546,4725.293L6088.498,4725.206L6088.443,4725.108L6088.409,4725.05L6088.382,4725.002L6088.327,4724.905L6088.265,4724.797L6088.237,4724.749L6088.215,4724.712L6088.152,4724.605L6088.083,4724.487L6088.06,4724.45L6088.045,4724.423L6087.974,4724.306L6087.897,4724.177L6087.881,4724.151L6087.871,4724.135L6087.793,4724.008L6087.708,4723.869L6087.695,4723.848L6087.609,4723.711L6087.515,4723.561L6087.419,4723.412L6087.331,4723.275L6087.318,4723.254L6087.228,4723.117L6087.145,4722.99L6087.135,4722.974L6087.118,4722.949L6087.033,4722.822L6086.955,4722.705L6086.938,4722.68L6086.914,4722.644L6086.835,4722.528L6086.762,4722.422L6086.737,4722.386L6086.706,4722.339L6086.633,4722.235L6086.567,4722.139L6086.534,4722.093L6086.494,4722.036L6086.427,4721.942L6086.367,4721.857L6086.327,4721.8L6086.279,4721.734L6086.219,4721.65L6086.165,4721.576L6086.116,4721.509L6086.061,4721.433L6086.007,4721.359L6085.959,4721.295L6085.902,4721.218L6085.838,4721.132L6085.791,4721.069L6085.751,4721.016L6085.684,4720.928L6085.612,4720.833L6085.572,4720.78L6085.539,4720.737L6085.463,4720.639L6085.383,4720.534L6085.35,4720.492L6085.324,4720.458L6085.239,4720.35L6085.149,4720.236L6085.124,4720.204L6085.106,4720.181L6085.01,4720.062L6084.913,4719.939L6084.895,4719.918L6084.885,4719.905L6084.776,4719.771L6084.672,4719.643L6084.66,4719.629L6084.509,4719.447L6084.428,4719.348L6084.323,4719.224L6084.202,4719.08L6084.18,4719.054L6084.076,4718.932L6083.968,4718.806L6083.952,4718.787L6083.929,4718.761L6083.83,4718.647L6083.731,4718.534L6083.706,4718.505L6083.674,4718.469L6083.581,4718.364L6083.491,4718.262L6083.456,4718.223L6083.416,4718.177L6083.33,4718.083L6083.248,4717.991L6083.203,4717.942L6083.153,4717.887L6083.075,4717.802L6083.001,4717.721L6082.947,4717.662L6082.888,4717.597L6082.818,4717.522L6082.752,4717.451L6082.687,4717.382L6082.618,4717.309L6082.557,4717.243L6082.499,4717.183L6082.424,4717.103L6082.346,4717.021L6082.292,4716.965L6082.244,4716.915L6082.157,4716.825L6082.069,4716.734L6082.025,4716.689L6081.985,4716.648L6081.886,4716.547L6081.789,4716.448L6081.754,4716.412L6081.723,4716.382L6081.61,4716.268L6081.506,4716.163L6081.479,4716.137L6081.458,4716.116L6081.329,4715.988L6081.219,4715.879L6081.202,4715.863L6081.19,4715.852L6081.032,4715.698L6080.928,4715.596L6080.634,4715.314L6080.528,4715.214L6080.368,4715.063L6080.354,4715.05L6080.336,4715.033L6080.225,4714.929L6080.088,4714.801L6080.063,4714.779L6080.035,4714.753L6079.927,4714.654L6079.804,4714.541L6079.769,4714.508L6079.731,4714.473L6079.629,4714.382L6079.518,4714.281L6079.471,4714.239L6079.422,4714.195L6079.329,4714.112L6079.229,4714.022L6079.169,4713.97L6079.111,4713.917L6079.026,4713.843L6078.936,4713.764L6078.865,4713.702L6078.795,4713.641L6078.72,4713.575L6078.641,4713.507L6078.556,4713.434L6078.477,4713.365L6078.41,4713.309L6078.342,4713.25L6078.244,4713.167L6078.154,4713.091L6078.098,4713.043L6078.041,4712.995L6077.927,4712.9L6077.829,4712.817L6077.783,4712.779L6077.736,4712.74L6077.606,4712.633L6077.5,4712.544L6077.464,4712.515L6077.428,4712.486L6077.279,4712.364L6077.167,4712.272L6077.142,4712.252L6077.118,4712.233L6076.938,4712.088L6076.831,4712.002L6076.804,4711.98L6076.543,4711.773L6076.491,4711.732L6076.148,4711.463L6076.051,4711.387L6075.845,4711.228L6075.823,4711.211L6075.802,4711.195L6075.691,4711.11L6075.52,4710.979L6075.484,4710.952L6075.452,4710.928L6075.342,4710.845L6075.191,4710.731L6075.142,4710.694L6075.098,4710.662L6074.994,4710.584L6074.859,4710.483L6074.796,4710.437L6074.742,4710.397L6074.645,4710.326L6074.525,4710.237L6074.447,4710.18L6074.381,4710.132L6074.294,4710.069L6074.187,4709.991L6074.094,4709.924L6074.018,4709.869L6073.94,4709.814L6073.847,4709.746L6073.737,4709.669L6073.651,4709.607L6073.584,4709.56L6073.503,4709.502L6073.376,4709.413L6073.28,4709.346L6073.225,4709.307L6073.157,4709.259L6073.01,4709.158L6072.906,4709.085L6072.862,4709.055L6072.807,4709.017L6072.637,4708.9L6072.529,4708.826L6072.497,4708.804L6072.455,4708.775L6072.253,4708.638L6072.148,4708.568L6072.128,4708.554L6072.099,4708.535L6071.838,4708.36L6071.764,4708.31L6071.757,4708.305L6070.996,4707.805L6070.986,4707.798L6070.906,4707.747L6070.649,4707.58L6070.614,4707.558L6070.592,4707.544L6070.49,4707.479L6070.279,4707.344L6070.228,4707.312L6070.194,4707.29L6070.089,4707.224L6069.906,4707.108L6069.839,4707.067L6069.793,4707.038L6069.692,4706.975L6069.53,4706.874L6069.447,4706.822L6069.389,4706.786L6069.295,4706.729L6069.151,4706.64L6069.05,4706.578L6068.981,4706.536L6068.897,4706.485L6068.77,4706.407L6068.65,4706.334L6068.57,4706.286L6068.496,4706.242L6068.385,4706.175L6068.245,4706.091L6068.156,4706.038L6068.093,4706L6067.997,4705.943L6067.834,4705.847L6067.738,4705.79L6067.687,4705.76L6067.607,4705.713L6067.417,4705.602L6067.317,4705.544L6067.279,4705.521L6067.214,4705.483L6066.988,4705.353L6066.893,4705.298L6066.868,4705.283L6066.818,4705.255L6066.538,4705.095L6066.465,4705.053L6066.453,4705.046C6066.031,4704.806 6065.603,4704.567 6065.171,4704.33L6065.163,4704.325L6065.11,4704.297L6064.794,4704.124L6064.742,4704.096L6064.722,4704.085L6064.638,4704.04L6064.381,4703.9L6064.311,4703.863L6064.278,4703.845L6064.186,4703.796L6063.964,4703.678L6063.875,4703.63L6063.83,4703.606L6063.74,4703.559L6063.545,4703.456L6063.436,4703.399L6063.38,4703.369L6063.295,4703.325L6063.124,4703.235L6062.993,4703.167L6062.926,4703.132L6062.85,4703.093L6062.699,4703.015L6062.544,4702.936L6062.469,4702.897L6062.403,4702.863L6062.271,4702.796L6062.09,4702.704L6062.008,4702.662L6061.954,4702.635L6061.841,4702.577L6061.629,4702.471L6061.544,4702.428L6061.503,4702.408L6061.408,4702.36L6061.158,4702.236L6061.077,4702.196L6061.049,4702.182L6060.972,4702.143L6060.668,4701.994L6060.607,4701.964L6060.593,4701.957L6060.533,4701.928L6060.134,4701.734ZM5534.907,5108.944L5534.907,5030.183C5534.911,5027.846 5535.663,5025.336 5536.856,5023.1C5538.053,5020.867 5539.693,5018.911 5541.571,5017.735L5611.862,4973.989C5613.748,4972.823 5616.143,4972.268 5618.531,4972.268C5620.921,4972.268 5623.315,4972.823 5625.197,4973.989L5695.486,5017.735C5697.366,5018.911 5699.006,5020.867 5700.205,5023.1C5701.398,5025.336 5702.148,5027.846 5702.153,5030.183L5702.153,5117.678C5702.148,5120.02 5701.398,5122.53 5700.205,5124.768C5699.006,5126.999 5697.366,5128.955 5695.486,5130.131L5625.197,5173.872C5623.315,5175.043 5620.921,5175.595 5618.531,5175.595C5616.143,5175.595 5613.748,5175.043 5611.862,5173.872L5541.571,5130.131C5540.654,5129.557 5539.794,5128.797 5539.015,5127.909L5509.248,5109.165L5534.907,5108.944ZM5574.806,5081.864C5574.651,5098.278 5662.056,5098.403 5662.253,5082.606L5662.253,5068.192C5662.251,5066.97 5661.859,5065.657 5661.235,5064.488C5660.608,5063.321 5659.75,5062.298 5658.767,5061.683L5622.016,5038.81C5621.032,5038.2 5619.78,5037.91 5618.53,5037.91C5617.282,5037.91 5616.03,5038.2 5615.043,5038.81L5578.291,5061.683C5577.309,5062.298 5576.452,5063.321 5575.826,5064.488C5575.202,5065.657 5574.809,5066.97 5574.806,5068.192L5574.806,5081.864ZM5464.079,5162.581C5453.81,5186.749 5430.283,5170 5432.209,5151.393C5434.133,5132.801 5459.195,5128.137 5464.071,5117.459L5464.071,5117.424L5464.079,5117.441L5464.088,5117.424L5464.088,5117.459C5468.964,5128.137 5494.025,5132.801 5495.949,5151.393C5497.875,5170 5474.347,5186.749 5464.079,5162.581ZM5182.069,4843.734C5172.668,4793.153 5176.777,4743.207 5191.685,4697.708C5195.545,4685.853 5210.284,4679.025 5217.432,4674.67C5280.766,4636.335 5321.86,4581.334 5347.354,4532.612C5355.141,4517.796 5384.376,4511.108 5396.733,4508.357C5424.569,4502.167 5451.433,4510.403 5455.085,4513.849C5494.246,4550.605 5555.114,4578.641 5625.922,4587.596C5634.16,4588.667 5652.991,4590.941 5660.553,4600.57C5689.357,4637.195 5713.303,4679.124 5724.239,4728.127C5899.447,4706.466 6021.829,4710.567 6028.575,4743.844C6038.486,4792.504 5795.884,4885.414 5486.836,4951.309C5177.737,5017.193 4919.159,5031.134 4909.25,4982.432C4902.522,4949.202 5013.089,4895.456 5182.069,4843.734ZM5360.986,4563.23C5365.918,4634.42 5299.018,4707.027 5227.297,4723.265C5351.731,4742.344 5408.369,4628.367 5360.986,4563.23ZM5701.194,4778.818C5705.416,4752.242 5701.765,4740.225 5693.682,4716.475C5511.016,4792.143 5402.673,4815.232 5205.432,4820.557C5206.572,4845.636 5205.873,4858.333 5223.027,4880.849C5416.119,4875.558 5522.277,4852.908 5701.194,4778.818ZM5451.479,4543.988C5433.324,4623.061 5529.6,4704.53 5636.345,4636.299C5564.236,4650.642 5474.634,4611.302 5451.479,4543.988ZM5236.178,5097L5236.178,5082.751C5236.182,5080.794 5236.81,5078.692 5237.809,5076.82C5238.813,5074.951 5240.186,5073.313 5241.76,5072.329L5300.611,5035.701C5302.187,5034.725 5304.192,5034.26 5306.193,5034.26C5308.192,5034.26 5310.197,5034.725 5311.776,5035.701L5370.629,5072.329C5372.201,5073.313 5373.574,5074.951 5374.577,5076.82C5375.575,5078.692 5376.205,5080.794 5376.209,5082.751L5376.209,5093.096L5393.619,5108.695L5376.209,5104.845L5376.209,5104.9C5355.542,5101.274 5332.995,5099.28 5309.396,5099.28C5286.63,5099.28 5264.843,5101.136 5244.779,5104.522L5222.162,5108.704L5236.178,5097ZM5633.756,5297.044L5633.638,5331.688C5633.696,5336.97 5632.306,5342.332 5625.329,5348.003L5501.383,5419.973C5501.383,5419.973 5606.711,5339.014 5614.715,5328.569C5622.007,5319.052 5633.756,5297.044 5633.756,5297.044ZM4974.377,4882.235L4974.377,4711.86C4974.407,4698.976 4978.861,4685.182 4985.935,4672.899C4993.04,4660.647 5002.734,4649.904 5013.862,4643.431L5430.199,4403.052C5441.388,4396.641 5455.567,4393.589 5469.715,4393.589C5483.863,4393.589 5498.042,4396.641 5509.185,4403.052L5925.537,4643.431C5936.68,4649.904 5946.405,4660.647 5953.51,4672.899C5954.764,4675.077 5955.935,4677.303 5957.013,4679.563C5901.955,4675.776 5833.296,4679.067 5756.928,4691.059C5736.897,4614.854 5689.985,4573.895 5672.422,4569.617C5655.783,4565.565 5499.201,4521.039 5479.75,4489.969C5464.006,4464.82 5413.301,4469.092 5393.917,4472.626C5363.268,4478.215 5324.819,4492.991 5318.628,4517.448C5306.651,4564.756 5197.539,4648.412 5180.332,4663.591C5160.962,4680.678 5131.296,4759.978 5141.726,4819.092C5077.97,4836.194 5020.557,4858.404 4974.377,4882.235ZM5489.834,5448.261L5635.792,5364.002C5639.949,5361.59 5643.576,5357.578 5646.229,5353.001C5648.867,5348.41 5650.526,5343.259 5650.536,5338.455L5650.536,5213.779L5704.369,5182.703C5710.201,5179.32 5715.289,5173.69 5719.01,5167.269C5722.711,5160.828 5725.039,5153.602 5725.053,5146.862L5725.053,4926.17C5828.558,4897.837 5907.401,4870.295 5965.038,4844.498L5965.038,5192.604C5965.007,5205.457 5960.584,5219.266 5953.51,5231.519C5946.405,5243.802 5936.68,5254.559 5925.537,5260.986L5509.185,5501.35C5498.042,5507.792 5483.863,5510.829 5469.715,5510.829C5455.567,5510.829 5441.388,5507.792 5430.199,5501.35L5013.862,5260.986C5002.734,5254.559 4993.04,5243.802 4985.935,5231.519C4978.861,5219.266 4974.407,5205.457 4974.377,5192.604L4974.377,5045.372C5029.129,5049.026 5105.135,5045.586 5206.139,5032.383L5206.139,5146.862C5206.153,5153.602 5208.487,5160.828 5212.188,5167.269C5215.903,5173.69 5220.991,5179.32 5226.816,5182.703L5280.656,5213.782L5280.656,5338.455C5280.666,5343.259 5282.329,5348.41 5284.968,5353.001C5287.615,5357.578 5291.242,5361.59 5295.395,5364.002L5440.529,5447.783L5464.689,5427.484L5489.834,5448.261ZM5617.749,5256.53L5617.765,5256.53L5617.765,5284.364L5574.034,5284.364L5563.824,5326.063L5553.442,5284.364L5525.895,5284.364L5515.953,5313.157L5505.844,5284.364L5476.825,5284.364L5465.146,5332.06L5453.271,5284.364L5424.231,5284.364L5414.289,5313.157L5404.18,5284.364L5376.629,5284.364L5366.419,5326.063L5356.037,5284.364L5312.295,5284.364L5312.295,5256.53L5312.311,5256.53L5311.526,5196.673L5332.939,5256.53L5356.368,5256.53L5366.236,5216.229L5376.27,5256.53L5404.647,5256.53L5414.106,5229.135L5423.725,5256.53L5453.577,5256.53L5464.913,5210.232L5476.441,5256.53L5506.311,5256.53L5515.77,5229.135L5525.389,5256.53L5553.773,5256.53L5563.641,5216.229L5573.675,5256.53L5597.121,5256.53L5618.534,5196.673L5617.749,5256.53Z" style="fill:rgb(76,76,76);"/>
            </g>
        </g>
    </g>
</svg>
