<?xml version="1.0" encoding="UTF-8" standalone="no"?>
<!DOCTYPE svg PUBLIC "-//W3C//DTD SVG 1.1//EN" "http://www.w3.org/Graphics/SVG/1.1/DTD/svg11.dtd">
<svg width="100%" height="100%" viewBox="0 0 848 671" version="1.1" xmlns="http://www.w3.org/2000/svg" xmlns:xlink="http://www.w3.org/1999/xlink" xml:space="preserve" xmlns:serif="http://www.serif.com/" style="fill-rule:evenodd;clip-rule:evenodd;stroke-linejoin:round;stroke-miterlimit:2;">
    <g transform="matrix(1,0,0,1,-3006.876527,-241.360667)">
        <g id="MONSTEROLOGY" transform="matrix(0.828125,0,0,0.436379,3006.876527,241.360667)">
            <rect x="0" y="0" width="1024" height="1536" style="fill:none;"/>
            <g transform="matrix(4.02064,0,0,7.630041,-18502.25695,-951.456346)">
                <path d="M4704.186,227.852C4691.455,217.624 4667.704,203.209 4667.704,203.209L4667.704,283.553C4667.704,289.095 4669.203,294.535 4672.041,299.295C4673.111,301.088 4673.957,302.507 4673.957,302.507C4673.957,302.507 4645.248,302.507 4632.651,302.507C4631.372,302.507 4630.178,301.86 4629.48,300.788C4628.781,299.716 4628.671,298.364 4629.187,297.193C4629.188,297.192 4629.188,297.192 4629.188,297.192C4629.188,297.192 4626.454,297.192 4623.146,297.192C4620.126,297.192 4617.234,295.972 4615.127,293.809C4613.019,291.646 4611.875,288.724 4611.953,285.705C4612.058,281.633 4612.152,278.041 4612.152,278.041C4612.152,278.041 4616.989,284.764 4618.186,285.961C4630.296,285.961 4636.079,277.72 4636.079,277.72L4620.533,277.72L4616.644,279.667C4616.644,279.667 4616.644,278.663 4616.644,277.399C4616.644,274.394 4618.575,271.729 4621.43,270.793C4624.523,269.779 4628.533,268.464 4631.624,267.45C4634.472,266.517 4636.398,263.859 4636.398,260.861L4636.398,148.435C4653.369,154.891 4700.311,178.782 4729.162,207.384C4758.013,178.782 4804.955,154.891 4821.927,148.435L4821.927,260.861C4821.927,263.859 4823.852,266.517 4826.7,267.45C4829.791,268.464 4833.801,269.779 4836.894,270.793C4839.749,271.729 4841.68,274.394 4841.68,277.399C4841.68,278.663 4841.68,279.667 4841.68,279.667L4837.791,277.72L4822.245,277.72C4822.245,277.72 4828.028,285.961 4840.139,285.961C4841.335,284.764 4846.173,278.041 4846.173,278.041C4846.173,278.041 4846.266,281.633 4846.371,285.705C4846.449,288.724 4845.305,291.646 4843.197,293.809C4841.09,295.972 4838.198,297.192 4835.178,297.192C4831.87,297.192 4829.136,297.192 4829.136,297.192C4829.136,297.192 4829.137,297.192 4829.137,297.193C4829.653,298.364 4829.543,299.716 4828.845,300.788C4828.146,301.86 4826.953,302.507 4825.673,302.507C4813.076,302.507 4784.367,302.507 4784.367,302.507C4784.367,302.507 4785.213,301.088 4786.283,299.295C4789.122,294.535 4790.62,289.095 4790.62,283.553C4790.62,261.359 4790.62,203.209 4790.62,203.209C4790.62,203.209 4767.056,217.51 4754.289,227.731C4757.197,231.198 4760.254,234.541 4763.454,237.752C4772.295,246.444 4777.726,258.55 4777.726,271.915C4777.726,298.614 4756.05,320.29 4729.351,320.29C4702.651,320.29 4680.975,298.614 4680.975,271.915C4680.975,258.55 4686.407,246.444 4695.18,237.685C4698.322,234.532 4701.327,231.251 4704.186,227.852ZM4639.845,288.457C4642.051,288.457 4643.842,290.248 4643.842,292.454C4643.842,294.66 4642.051,296.451 4639.845,296.451C4637.639,296.451 4635.848,294.66 4635.848,292.454C4635.848,290.248 4637.639,288.457 4639.845,288.457ZM4818.479,288.457C4816.273,288.457 4814.482,290.248 4814.482,292.454C4814.482,294.66 4816.273,296.451 4818.479,296.451C4820.685,296.451 4822.476,294.66 4822.476,292.454C4822.476,290.248 4820.685,288.457 4818.479,288.457ZM4729.351,240.665C4729.351,240.665 4738.59,251.278 4742.696,257.122C4745.486,261.091 4748.281,265.261 4748.281,270.491C4748.281,280.939 4739.799,289.421 4729.351,289.421C4718.902,289.421 4710.42,280.939 4710.42,270.491C4710.42,265.261 4713.28,261.127 4715.978,257.096C4720.513,250.322 4729.351,240.665 4729.351,240.665ZM4744.894,149.44L4729.169,130.429L4729.165,130.417L4729.162,130.421L4729.159,130.417L4729.156,130.429L4713.431,149.44L4692.032,146.035L4703.36,168.577L4754.964,168.577L4766.292,146.035L4744.894,149.44Z" style="fill:rgb(76,76,76);"/>
            </g>
        </g>
    </g>
</svg>
