<?xml version="1.0" encoding="UTF-8" standalone="no"?>
<!DOCTYPE svg PUBLIC "-//W3C//DTD SVG 1.1//EN" "http://www.w3.org/Graphics/SVG/1.1/DTD/svg11.dtd">
<svg width="100%" height="100%" viewBox="0 0 848 1153" version="1.1" xmlns="http://www.w3.org/2000/svg" xmlns:xlink="http://www.w3.org/1999/xlink" xml:space="preserve" xmlns:serif="http://www.serif.com/" style="fill-rule:evenodd;clip-rule:evenodd;stroke-linejoin:round;stroke-miterlimit:2;">
    <g transform="matrix(1,0,0,1,-1012.598476,0)">
        <g id="SHINE-RIDERS" serif:id="SHINE RIDERS" transform="matrix(0.828125,0,0,0.750651,1012.598476,0)">
            <rect x="0" y="0" width="1024" height="1536" style="fill:none;"/>
            <g transform="matrix(1.232669,0,0,1.359891,-2150.105017,150.330231)">
                <path d="M2571.306,397.818C2579.302,445.283 2495.526,587.62 2334.254,612.065C2338.792,589.983 2349.575,568.985 2344.254,559.271C2338.934,549.557 2285.67,590.851 2304.254,627.819C2315.026,644.715 2342.254,648.842 2342.254,648.842C2342.254,648.842 2312.813,771.542 2159.754,936.502L2159.5,935.473L2159.5,936.502C2006.441,771.542 1977,648.842 1977,648.842C1977,648.842 2004.228,644.715 2015,627.819C2033.584,590.851 1980.321,549.557 1975,559.271C1969.679,568.985 1980.462,589.983 1985,612.065C1823.728,587.62 1739.953,445.283 1747.948,397.818C1801.026,451.923 1955.059,508.338 2158.226,508.597C2158.652,508.6 2159.077,508.602 2159.5,508.602L2159.5,508.642L2159.754,508.602C2160.178,508.602 2160.602,508.6 2161.028,508.597C2364.196,508.338 2518.228,451.923 2571.306,397.818ZM2209.117,581.933C2208.774,583.831 2208.595,585.785 2208.595,587.782C2208.595,591.609 2209.253,595.284 2210.462,598.699C2210.462,598.699 2274.108,596.711 2274.108,587.782C2274.108,580.738 2271.88,574.211 2268.091,568.867L2209.117,581.933ZM2206.638,551.567C2189.163,553.61 2172.503,554.997 2159.5,554.997C2146.557,554.997 2130.007,553.623 2112.645,551.595C2119.147,557.839 2123.972,565.817 2126.374,574.782L2192.88,574.782C2195.286,565.804 2200.122,557.815 2206.638,551.567ZM2159.627,646.399C2144.415,646.399 2109.131,666.616 2080.756,694.099C2089.196,720.221 2088.878,746.731 2080.756,773.587L2238.498,773.587C2231.113,750.085 2230.186,723.965 2238.498,694.099C2210.123,666.616 2174.839,646.399 2159.627,646.399ZM2207.67,693.265C2211.475,696.074 2215.23,699.072 2218.834,702.213L2218.834,754.754L2207.67,754.754L2207.67,693.265ZM2114.136,754.754L2102.972,754.754L2102.972,702.213C2106.576,699.072 2110.331,696.074 2114.136,693.265L2114.136,754.754ZM2180.825,676.885C2185.194,678.977 2189.878,681.541 2194.67,684.486L2194.67,754.754L2180.825,754.754L2180.825,676.885ZM2127.136,684.486C2131.928,681.541 2136.612,678.977 2140.981,676.885L2140.981,754.754L2127.136,754.754L2127.136,684.486ZM2153.981,671.812C2156.653,671.074 2158.993,670.684 2160.903,670.684C2162.813,670.684 2165.153,671.074 2167.825,671.812L2167.825,754.754L2153.981,754.754L2153.981,671.812ZM2054.751,543.264C2028.688,538.955 2009.127,535.088 2009,535C2005.09,532.277 2016.143,555.481 2028.607,578.393C2031.507,563.096 2041.361,550.248 2054.751,543.264ZM2108.855,598.52C2110.024,595.155 2110.659,591.542 2110.659,587.782C2110.659,585.846 2110.491,583.949 2110.168,582.105L2051.063,569.009C2047.335,574.327 2045.147,580.801 2045.147,587.782C2045.147,596.643 2108.855,598.52 2108.855,598.52ZM2036.08,615.495L2034,615C2034,615 2036.141,652.336 2055,676C2089.675,676 2114.49,623.496 2159.5,623.003L2159.502,623.683L2159.754,623.003C2204.764,623.496 2229.579,676 2264.254,676C2283.113,652.336 2285.254,615 2285.254,615L2283.174,615.495C2274.183,629.028 2258.802,637.956 2241.352,637.956C2218.155,637.956 2198.613,622.18 2192.88,600.782L2126.374,600.782C2120.641,622.18 2101.1,637.956 2077.903,637.956C2060.453,637.956 2045.071,629.028 2036.08,615.495ZM2290.648,578.393C2303.111,555.481 2314.164,532.277 2310.254,535C2310.128,535.088 2290.557,538.947 2264.479,543.251C2277.881,550.232 2287.745,563.087 2290.648,578.393ZM2343.149,447.701C2342.137,449.151 2338.613,451.776 2332.461,452.512C2305.791,455.702 2213.946,465.995 2161.339,466.074C2160.818,466.079 2158.436,466.079 2157.916,466.074C2101.039,465.989 2045.816,461.651 1993.696,454.075C1990.714,453.639 1987.826,452.552 1985.181,450.869C1982.169,448.903 1979.491,446.91 1977.213,444.843C1957.903,427.316 1960.285,373.434 1997.677,352.827C2035.299,332.092 1967.138,302.426 1967.138,243.288C1967.138,217.485 1984.996,197.038 2001.273,177.233C2022.201,151.769 2005.006,112.079 2005.006,112.079C2005.006,112.079 2054.562,151.192 2031.715,189.793C2015.407,217.347 2033.74,259.148 2061.198,259.148C2111.03,259.148 2138.55,179.962 2079.425,135.149C2008.545,81.427 2111.897,14.033 2111.897,14.033C2111.897,14.033 2082.086,60.146 2146.833,112.079C2176.679,136.019 2204.011,208.973 2161.186,262.032C2133.228,296.67 2161.822,348.971 2193.978,352.827C2231.734,357.354 2251.847,307.98 2231.952,280.776C2216.41,259.524 2212.007,218.553 2225.133,194.265C2238.259,169.976 2253.626,182.772 2274.972,175.521C2296.318,168.269 2278.636,114.963 2278.636,114.963C2278.636,114.963 2302.36,132.621 2312.414,158.822C2322.668,185.547 2318.995,220.925 2291.927,231.508C2266.875,241.302 2277.294,283.256 2318.948,315.381C2358.42,345.824 2361.466,421.475 2343.149,447.701Z" style="fill:rgb(76,76,76);"/>
            </g>
        </g>
    </g>
</svg>
