<?xml version="1.0" encoding="UTF-8" standalone="no"?>
<!DOCTYPE svg PUBLIC "-//W3C//DTD SVG 1.1//EN" "http://www.w3.org/Graphics/SVG/1.1/DTD/svg11.dtd">
<svg width="100%" height="100%" viewBox="0 0 2000 800" version="1.1" xmlns="http://www.w3.org/2000/svg" xmlns:xlink="http://www.w3.org/1999/xlink" xml:space="preserve" xmlns:serif="http://www.serif.com/" style="fill-rule:evenodd;clip-rule:evenodd;">
    <path d="M280,400L1000,760L1000,780L280,420L280,400Z" style="fill:rgb(188,154,131);fill-rule:nonzero;"/>
    <path d="M1720,400L1000,760L1000,780L1720,420L1720,400Z" style="fill:rgb(130,108,95);fill-rule:nonzero;"/>
    <path d="M1000,40L1720,400L1000,760L280,400L1000,40Z" style="fill:rgb(223,193,168);fill-rule:nonzero;"/>
    <g>
        <clipPath id="_clip1">
            <path d="M1000,40L1720,400L1000,760L280,400L1000,40Z"/>
        </clipPath>
        <g clip-path="url(#_clip1)">
            <path d="M1000,40L1720,400" style="fill:none;fill-rule:nonzero;stroke:rgb(237,211,193);stroke-width:1.2px;"/>
        </g>
    </g>
    <g>
        <clipPath id="_clip2">
            <path d="M1000,40L1720,400L1000,760L280,400L1000,40Z"/>
        </clipPath>
        <g clip-path="url(#_clip2)">
            <path d="M980,50L1700,410" style="fill:none;fill-rule:nonzero;stroke:rgb(237,211,193);stroke-width:1.2px;"/>
        </g>
    </g>
    <g>
        <clipPath id="_clip3">
            <path d="M1000,40L1720,400L1000,760L280,400L1000,40Z"/>
        </clipPath>
        <g clip-path="url(#_clip3)">
            <path d="M960,60L1680,420" style="fill:none;fill-rule:nonzero;stroke:rgb(237,211,193);stroke-width:1.2px;"/>
        </g>
    </g>
    <g>
        <clipPath id="_clip4">
            <path d="M1000,40L1720,400L1000,760L280,400L1000,40Z"/>
        </clipPath>
        <g clip-path="url(#_clip4)">
            <path d="M940,70L1660,430" style="fill:none;fill-rule:nonzero;stroke:rgb(237,211,193);stroke-width:1.2px;"/>
        </g>
    </g>
    <g>
        <clipPath id="_clip5">
            <path d="M1000,40L1720,400L1000,760L280,400L1000,40Z"/>
        </clipPath>
        <g clip-path="url(#_clip5)">
            <path d="M920,80L1640,440" style="fill:none;fill-rule:nonzero;stroke:rgb(237,211,193);stroke-width:1.2px;"/>
        </g>
    </g>
    <g>
        <clipPath id="_clip6">
            <path d="M1000,40L1720,400L1000,760L280,400L1000,40Z"/>
        </clipPath>
        <g clip-path="url(#_clip6)">
            <path d="M900,90L1620,450" style="fill:none;fill-rule:nonzero;stroke:rgb(237,211,193);stroke-width:1.2px;"/>
        </g>
    </g>
    <g>
        <clipPath id="_clip7">
            <path d="M1000,40L1720,400L1000,760L280,400L1000,40Z"/>
        </clipPath>
        <g clip-path="url(#_clip7)">
            <path d="M880,100L1600,460" style="fill:none;fill-rule:nonzero;stroke:rgb(237,211,193);stroke-width:1.2px;"/>
        </g>
    </g>
    <g>
        <clipPath id="_clip8">
            <path d="M1000,40L1720,400L1000,760L280,400L1000,40Z"/>
        </clipPath>
        <g clip-path="url(#_clip8)">
            <path d="M860,110L1580,470" style="fill:none;fill-rule:nonzero;stroke:rgb(237,211,193);stroke-width:1.2px;"/>
        </g>
    </g>
    <g>
        <clipPath id="_clip9">
            <path d="M1000,40L1720,400L1000,760L280,400L1000,40Z"/>
        </clipPath>
        <g clip-path="url(#_clip9)">
            <path d="M840,120L1560,480" style="fill:none;fill-rule:nonzero;stroke:rgb(237,211,193);stroke-width:1.2px;"/>
        </g>
    </g>
    <g>
        <clipPath id="_clip10">
            <path d="M1000,40L1720,400L1000,760L280,400L1000,40Z"/>
        </clipPath>
        <g clip-path="url(#_clip10)">
            <path d="M820,130L1540,490" style="fill:none;fill-rule:nonzero;stroke:rgb(237,211,193);stroke-width:1.2px;"/>
        </g>
    </g>
    <g>
        <clipPath id="_clip11">
            <path d="M1000,40L1720,400L1000,760L280,400L1000,40Z"/>
        </clipPath>
        <g clip-path="url(#_clip11)">
            <path d="M800,140L1520,500" style="fill:none;fill-rule:nonzero;stroke:rgb(237,211,193);stroke-width:1.2px;"/>
        </g>
    </g>
    <g>
        <clipPath id="_clip12">
            <path d="M1000,40L1720,400L1000,760L280,400L1000,40Z"/>
        </clipPath>
        <g clip-path="url(#_clip12)">
            <path d="M780,150L1500,510" style="fill:none;fill-rule:nonzero;stroke:rgb(237,211,193);stroke-width:1.2px;"/>
        </g>
    </g>
    <g>
        <clipPath id="_clip13">
            <path d="M1000,40L1720,400L1000,760L280,400L1000,40Z"/>
        </clipPath>
        <g clip-path="url(#_clip13)">
            <path d="M760,160L1480,520" style="fill:none;fill-rule:nonzero;stroke:rgb(237,211,193);stroke-width:1.2px;"/>
        </g>
    </g>
    <g>
        <clipPath id="_clip14">
            <path d="M1000,40L1720,400L1000,760L280,400L1000,40Z"/>
        </clipPath>
        <g clip-path="url(#_clip14)">
            <path d="M740,170L1460,530" style="fill:none;fill-rule:nonzero;stroke:rgb(237,211,193);stroke-width:1.2px;"/>
        </g>
    </g>
    <g>
        <clipPath id="_clip15">
            <path d="M1000,40L1720,400L1000,760L280,400L1000,40Z"/>
        </clipPath>
        <g clip-path="url(#_clip15)">
            <path d="M720,180L1440,540" style="fill:none;fill-rule:nonzero;stroke:rgb(237,211,193);stroke-width:1.2px;"/>
        </g>
    </g>
    <g>
        <clipPath id="_clip16">
            <path d="M1000,40L1720,400L1000,760L280,400L1000,40Z"/>
        </clipPath>
        <g clip-path="url(#_clip16)">
            <path d="M700,190L1420,550" style="fill:none;fill-rule:nonzero;stroke:rgb(237,211,193);stroke-width:1.2px;"/>
        </g>
    </g>
    <g>
        <clipPath id="_clip17">
            <path d="M1000,40L1720,400L1000,760L280,400L1000,40Z"/>
        </clipPath>
        <g clip-path="url(#_clip17)">
            <path d="M680,200L1400,560" style="fill:none;fill-rule:nonzero;stroke:rgb(237,211,193);stroke-width:1.2px;"/>
        </g>
    </g>
    <g>
        <clipPath id="_clip18">
            <path d="M1000,40L1720,400L1000,760L280,400L1000,40Z"/>
        </clipPath>
        <g clip-path="url(#_clip18)">
            <path d="M660,210L1380,570" style="fill:none;fill-rule:nonzero;stroke:rgb(237,211,193);stroke-width:1.2px;"/>
        </g>
    </g>
    <g>
        <clipPath id="_clip19">
            <path d="M1000,40L1720,400L1000,760L280,400L1000,40Z"/>
        </clipPath>
        <g clip-path="url(#_clip19)">
            <path d="M640,220L1360,580" style="fill:none;fill-rule:nonzero;stroke:rgb(237,211,193);stroke-width:1.2px;"/>
        </g>
    </g>
    <g>
        <clipPath id="_clip20">
            <path d="M1000,40L1720,400L1000,760L280,400L1000,40Z"/>
        </clipPath>
        <g clip-path="url(#_clip20)">
            <path d="M620,230L1340,590" style="fill:none;fill-rule:nonzero;stroke:rgb(237,211,193);stroke-width:1.2px;"/>
        </g>
    </g>
    <g>
        <clipPath id="_clip21">
            <path d="M1000,40L1720,400L1000,760L280,400L1000,40Z"/>
        </clipPath>
        <g clip-path="url(#_clip21)">
            <path d="M600,240L1320,600" style="fill:none;fill-rule:nonzero;stroke:rgb(237,211,193);stroke-width:1.2px;"/>
        </g>
    </g>
    <g>
        <clipPath id="_clip22">
            <path d="M1000,40L1720,400L1000,760L280,400L1000,40Z"/>
        </clipPath>
        <g clip-path="url(#_clip22)">
            <path d="M580,250L1300,610" style="fill:none;fill-rule:nonzero;stroke:rgb(237,211,193);stroke-width:1.2px;"/>
        </g>
    </g>
    <g>
        <clipPath id="_clip23">
            <path d="M1000,40L1720,400L1000,760L280,400L1000,40Z"/>
        </clipPath>
        <g clip-path="url(#_clip23)">
            <path d="M560,260L1280,620" style="fill:none;fill-rule:nonzero;stroke:rgb(237,211,193);stroke-width:1.2px;"/>
        </g>
    </g>
    <g>
        <clipPath id="_clip24">
            <path d="M1000,40L1720,400L1000,760L280,400L1000,40Z"/>
        </clipPath>
        <g clip-path="url(#_clip24)">
            <path d="M540,270L1260,630" style="fill:none;fill-rule:nonzero;stroke:rgb(237,211,193);stroke-width:1.2px;"/>
        </g>
    </g>
    <g>
        <clipPath id="_clip25">
            <path d="M1000,40L1720,400L1000,760L280,400L1000,40Z"/>
        </clipPath>
        <g clip-path="url(#_clip25)">
            <path d="M520,280L1240,640" style="fill:none;fill-rule:nonzero;stroke:rgb(237,211,193);stroke-width:1.2px;"/>
        </g>
    </g>
    <g>
        <clipPath id="_clip26">
            <path d="M1000,40L1720,400L1000,760L280,400L1000,40Z"/>
        </clipPath>
        <g clip-path="url(#_clip26)">
            <path d="M500,290L1220,650" style="fill:none;fill-rule:nonzero;stroke:rgb(237,211,193);stroke-width:1.2px;"/>
        </g>
    </g>
    <g>
        <clipPath id="_clip27">
            <path d="M1000,40L1720,400L1000,760L280,400L1000,40Z"/>
        </clipPath>
        <g clip-path="url(#_clip27)">
            <path d="M480,300L1200,660" style="fill:none;fill-rule:nonzero;stroke:rgb(237,211,193);stroke-width:1.2px;"/>
        </g>
    </g>
    <g>
        <clipPath id="_clip28">
            <path d="M1000,40L1720,400L1000,760L280,400L1000,40Z"/>
        </clipPath>
        <g clip-path="url(#_clip28)">
            <path d="M460,310L1180,670" style="fill:none;fill-rule:nonzero;stroke:rgb(237,211,193);stroke-width:1.2px;"/>
        </g>
    </g>
    <g>
        <clipPath id="_clip29">
            <path d="M1000,40L1720,400L1000,760L280,400L1000,40Z"/>
        </clipPath>
        <g clip-path="url(#_clip29)">
            <path d="M440,320L1160,680" style="fill:none;fill-rule:nonzero;stroke:rgb(237,211,193);stroke-width:1.2px;"/>
        </g>
    </g>
    <g>
        <clipPath id="_clip30">
            <path d="M1000,40L1720,400L1000,760L280,400L1000,40Z"/>
        </clipPath>
        <g clip-path="url(#_clip30)">
            <path d="M420,330L1140,690" style="fill:none;fill-rule:nonzero;stroke:rgb(237,211,193);stroke-width:1.2px;"/>
        </g>
    </g>
    <g>
        <clipPath id="_clip31">
            <path d="M1000,40L1720,400L1000,760L280,400L1000,40Z"/>
        </clipPath>
        <g clip-path="url(#_clip31)">
            <path d="M400,340L1120,700" style="fill:none;fill-rule:nonzero;stroke:rgb(237,211,193);stroke-width:1.2px;"/>
        </g>
    </g>
    <g>
        <clipPath id="_clip32">
            <path d="M1000,40L1720,400L1000,760L280,400L1000,40Z"/>
        </clipPath>
        <g clip-path="url(#_clip32)">
            <path d="M380,350L1100,710" style="fill:none;fill-rule:nonzero;stroke:rgb(237,211,193);stroke-width:1.2px;"/>
        </g>
    </g>
    <g>
        <clipPath id="_clip33">
            <path d="M1000,40L1720,400L1000,760L280,400L1000,40Z"/>
        </clipPath>
        <g clip-path="url(#_clip33)">
            <path d="M360,360L1080,720" style="fill:none;fill-rule:nonzero;stroke:rgb(237,211,193);stroke-width:1.2px;"/>
        </g>
    </g>
    <g>
        <clipPath id="_clip34">
            <path d="M1000,40L1720,400L1000,760L280,400L1000,40Z"/>
        </clipPath>
        <g clip-path="url(#_clip34)">
            <path d="M340,370L1060,730" style="fill:none;fill-rule:nonzero;stroke:rgb(237,211,193);stroke-width:1.2px;"/>
        </g>
    </g>
    <g>
        <clipPath id="_clip35">
            <path d="M1000,40L1720,400L1000,760L280,400L1000,40Z"/>
        </clipPath>
        <g clip-path="url(#_clip35)">
            <path d="M320,380L1040,740" style="fill:none;fill-rule:nonzero;stroke:rgb(237,211,193);stroke-width:1.2px;"/>
        </g>
    </g>
    <g>
        <clipPath id="_clip36">
            <path d="M1000,40L1720,400L1000,760L280,400L1000,40Z"/>
        </clipPath>
        <g clip-path="url(#_clip36)">
            <path d="M300,390L1020,750" style="fill:none;fill-rule:nonzero;stroke:rgb(237,211,193);stroke-width:1.2px;"/>
        </g>
    </g>
    <g>
        <clipPath id="_clip37">
            <path d="M1000,40L1720,400L1000,760L280,400L1000,40Z"/>
        </clipPath>
        <g clip-path="url(#_clip37)">
            <path d="M280,400L1000,760" style="fill:none;fill-rule:nonzero;stroke:rgb(237,211,193);stroke-width:1.2px;"/>
        </g>
    </g>
    <g>
        <clipPath id="_clip38">
            <path d="M1000,40L1720,400L1000,760L280,400L1000,40Z"/>
        </clipPath>
        <g clip-path="url(#_clip38)">
            <path d="M1000,40L280,400" style="fill:none;fill-rule:nonzero;stroke:rgb(237,211,193);stroke-width:1.2px;"/>
        </g>
    </g>
    <g>
        <clipPath id="_clip39">
            <path d="M1000,40L1720,400L1000,760L280,400L1000,40Z"/>
        </clipPath>
        <g clip-path="url(#_clip39)">
            <path d="M1020,50L300,410" style="fill:none;fill-rule:nonzero;stroke:rgb(237,211,193);stroke-width:1.2px;"/>
        </g>
    </g>
    <g>
        <clipPath id="_clip40">
            <path d="M1000,40L1720,400L1000,760L280,400L1000,40Z"/>
        </clipPath>
        <g clip-path="url(#_clip40)">
            <path d="M1040,60L320,420" style="fill:none;fill-rule:nonzero;stroke:rgb(237,211,193);stroke-width:1.2px;"/>
        </g>
    </g>
    <g>
        <clipPath id="_clip41">
            <path d="M1000,40L1720,400L1000,760L280,400L1000,40Z"/>
        </clipPath>
        <g clip-path="url(#_clip41)">
            <path d="M1060,70L340,430" style="fill:none;fill-rule:nonzero;stroke:rgb(237,211,193);stroke-width:1.2px;"/>
        </g>
    </g>
    <g>
        <clipPath id="_clip42">
            <path d="M1000,40L1720,400L1000,760L280,400L1000,40Z"/>
        </clipPath>
        <g clip-path="url(#_clip42)">
            <path d="M1080,80L360,440" style="fill:none;fill-rule:nonzero;stroke:rgb(237,211,193);stroke-width:1.2px;"/>
        </g>
    </g>
    <g>
        <clipPath id="_clip43">
            <path d="M1000,40L1720,400L1000,760L280,400L1000,40Z"/>
        </clipPath>
        <g clip-path="url(#_clip43)">
            <path d="M1100,90L380,450" style="fill:none;fill-rule:nonzero;stroke:rgb(237,211,193);stroke-width:1.2px;"/>
        </g>
    </g>
    <g>
        <clipPath id="_clip44">
            <path d="M1000,40L1720,400L1000,760L280,400L1000,40Z"/>
        </clipPath>
        <g clip-path="url(#_clip44)">
            <path d="M1120,100L400,460" style="fill:none;fill-rule:nonzero;stroke:rgb(237,211,193);stroke-width:1.2px;"/>
        </g>
    </g>
    <g>
        <clipPath id="_clip45">
            <path d="M1000,40L1720,400L1000,760L280,400L1000,40Z"/>
        </clipPath>
        <g clip-path="url(#_clip45)">
            <path d="M1140,110L420,470" style="fill:none;fill-rule:nonzero;stroke:rgb(237,211,193);stroke-width:1.2px;"/>
        </g>
    </g>
    <g>
        <clipPath id="_clip46">
            <path d="M1000,40L1720,400L1000,760L280,400L1000,40Z"/>
        </clipPath>
        <g clip-path="url(#_clip46)">
            <path d="M1160,120L440,480" style="fill:none;fill-rule:nonzero;stroke:rgb(237,211,193);stroke-width:1.2px;"/>
        </g>
    </g>
    <g>
        <clipPath id="_clip47">
            <path d="M1000,40L1720,400L1000,760L280,400L1000,40Z"/>
        </clipPath>
        <g clip-path="url(#_clip47)">
            <path d="M1180,130L460,490" style="fill:none;fill-rule:nonzero;stroke:rgb(237,211,193);stroke-width:1.2px;"/>
        </g>
    </g>
    <g>
        <clipPath id="_clip48">
            <path d="M1000,40L1720,400L1000,760L280,400L1000,40Z"/>
        </clipPath>
        <g clip-path="url(#_clip48)">
            <path d="M1200,140L480,500" style="fill:none;fill-rule:nonzero;stroke:rgb(237,211,193);stroke-width:1.2px;"/>
        </g>
    </g>
    <g>
        <clipPath id="_clip49">
            <path d="M1000,40L1720,400L1000,760L280,400L1000,40Z"/>
        </clipPath>
        <g clip-path="url(#_clip49)">
            <path d="M1220,150L500,510" style="fill:none;fill-rule:nonzero;stroke:rgb(237,211,193);stroke-width:1.2px;"/>
        </g>
    </g>
    <g>
        <clipPath id="_clip50">
            <path d="M1000,40L1720,400L1000,760L280,400L1000,40Z"/>
        </clipPath>
        <g clip-path="url(#_clip50)">
            <path d="M1240,160L520,520" style="fill:none;fill-rule:nonzero;stroke:rgb(237,211,193);stroke-width:1.2px;"/>
        </g>
    </g>
    <g>
        <clipPath id="_clip51">
            <path d="M1000,40L1720,400L1000,760L280,400L1000,40Z"/>
        </clipPath>
        <g clip-path="url(#_clip51)">
            <path d="M1260,170L540,530" style="fill:none;fill-rule:nonzero;stroke:rgb(237,211,193);stroke-width:1.2px;"/>
        </g>
    </g>
    <g>
        <clipPath id="_clip52">
            <path d="M1000,40L1720,400L1000,760L280,400L1000,40Z"/>
        </clipPath>
        <g clip-path="url(#_clip52)">
            <path d="M1280,180L560,540" style="fill:none;fill-rule:nonzero;stroke:rgb(237,211,193);stroke-width:1.2px;"/>
        </g>
    </g>
    <g>
        <clipPath id="_clip53">
            <path d="M1000,40L1720,400L1000,760L280,400L1000,40Z"/>
        </clipPath>
        <g clip-path="url(#_clip53)">
            <path d="M1300,190L580,550" style="fill:none;fill-rule:nonzero;stroke:rgb(237,211,193);stroke-width:1.2px;"/>
        </g>
    </g>
    <g>
        <clipPath id="_clip54">
            <path d="M1000,40L1720,400L1000,760L280,400L1000,40Z"/>
        </clipPath>
        <g clip-path="url(#_clip54)">
            <path d="M1320,200L600,560" style="fill:none;fill-rule:nonzero;stroke:rgb(237,211,193);stroke-width:1.2px;"/>
        </g>
    </g>
    <g>
        <clipPath id="_clip55">
            <path d="M1000,40L1720,400L1000,760L280,400L1000,40Z"/>
        </clipPath>
        <g clip-path="url(#_clip55)">
            <path d="M1340,210L620,570" style="fill:none;fill-rule:nonzero;stroke:rgb(237,211,193);stroke-width:1.2px;"/>
        </g>
    </g>
    <g>
        <clipPath id="_clip56">
            <path d="M1000,40L1720,400L1000,760L280,400L1000,40Z"/>
        </clipPath>
        <g clip-path="url(#_clip56)">
            <path d="M1360,220L640,580" style="fill:none;fill-rule:nonzero;stroke:rgb(237,211,193);stroke-width:1.2px;"/>
        </g>
    </g>
    <g>
        <clipPath id="_clip57">
            <path d="M1000,40L1720,400L1000,760L280,400L1000,40Z"/>
        </clipPath>
        <g clip-path="url(#_clip57)">
            <path d="M1380,230L660,590" style="fill:none;fill-rule:nonzero;stroke:rgb(237,211,193);stroke-width:1.2px;"/>
        </g>
    </g>
    <g>
        <clipPath id="_clip58">
            <path d="M1000,40L1720,400L1000,760L280,400L1000,40Z"/>
        </clipPath>
        <g clip-path="url(#_clip58)">
            <path d="M1400,240L680,600" style="fill:none;fill-rule:nonzero;stroke:rgb(237,211,193);stroke-width:1.2px;"/>
        </g>
    </g>
    <g>
        <clipPath id="_clip59">
            <path d="M1000,40L1720,400L1000,760L280,400L1000,40Z"/>
        </clipPath>
        <g clip-path="url(#_clip59)">
            <path d="M1420,250L700,610" style="fill:none;fill-rule:nonzero;stroke:rgb(237,211,193);stroke-width:1.2px;"/>
        </g>
    </g>
    <g>
        <clipPath id="_clip60">
            <path d="M1000,40L1720,400L1000,760L280,400L1000,40Z"/>
        </clipPath>
        <g clip-path="url(#_clip60)">
            <path d="M1440,260L720,620" style="fill:none;fill-rule:nonzero;stroke:rgb(237,211,193);stroke-width:1.2px;"/>
        </g>
    </g>
    <g>
        <clipPath id="_clip61">
            <path d="M1000,40L1720,400L1000,760L280,400L1000,40Z"/>
        </clipPath>
        <g clip-path="url(#_clip61)">
            <path d="M1460,270L740,630" style="fill:none;fill-rule:nonzero;stroke:rgb(237,211,193);stroke-width:1.2px;"/>
        </g>
    </g>
    <g>
        <clipPath id="_clip62">
            <path d="M1000,40L1720,400L1000,760L280,400L1000,40Z"/>
        </clipPath>
        <g clip-path="url(#_clip62)">
            <path d="M1480,280L760,640" style="fill:none;fill-rule:nonzero;stroke:rgb(237,211,193);stroke-width:1.2px;"/>
        </g>
    </g>
    <g>
        <clipPath id="_clip63">
            <path d="M1000,40L1720,400L1000,760L280,400L1000,40Z"/>
        </clipPath>
        <g clip-path="url(#_clip63)">
            <path d="M1500,290L780,650" style="fill:none;fill-rule:nonzero;stroke:rgb(237,211,193);stroke-width:1.2px;"/>
        </g>
    </g>
    <g>
        <clipPath id="_clip64">
            <path d="M1000,40L1720,400L1000,760L280,400L1000,40Z"/>
        </clipPath>
        <g clip-path="url(#_clip64)">
            <path d="M1520,300L800,660" style="fill:none;fill-rule:nonzero;stroke:rgb(237,211,193);stroke-width:1.2px;"/>
        </g>
    </g>
    <g>
        <clipPath id="_clip65">
            <path d="M1000,40L1720,400L1000,760L280,400L1000,40Z"/>
        </clipPath>
        <g clip-path="url(#_clip65)">
            <path d="M1540,310L820,670" style="fill:none;fill-rule:nonzero;stroke:rgb(237,211,193);stroke-width:1.2px;"/>
        </g>
    </g>
    <g>
        <clipPath id="_clip66">
            <path d="M1000,40L1720,400L1000,760L280,400L1000,40Z"/>
        </clipPath>
        <g clip-path="url(#_clip66)">
            <path d="M1560,320L840,680" style="fill:none;fill-rule:nonzero;stroke:rgb(237,211,193);stroke-width:1.2px;"/>
        </g>
    </g>
    <g>
        <clipPath id="_clip67">
            <path d="M1000,40L1720,400L1000,760L280,400L1000,40Z"/>
        </clipPath>
        <g clip-path="url(#_clip67)">
            <path d="M1580,330L860,690" style="fill:none;fill-rule:nonzero;stroke:rgb(237,211,193);stroke-width:1.2px;"/>
        </g>
    </g>
    <g>
        <clipPath id="_clip68">
            <path d="M1000,40L1720,400L1000,760L280,400L1000,40Z"/>
        </clipPath>
        <g clip-path="url(#_clip68)">
            <path d="M1600,340L880,700" style="fill:none;fill-rule:nonzero;stroke:rgb(237,211,193);stroke-width:1.2px;"/>
        </g>
    </g>
    <g>
        <clipPath id="_clip69">
            <path d="M1000,40L1720,400L1000,760L280,400L1000,40Z"/>
        </clipPath>
        <g clip-path="url(#_clip69)">
            <path d="M1620,350L900,710" style="fill:none;fill-rule:nonzero;stroke:rgb(237,211,193);stroke-width:1.2px;"/>
        </g>
    </g>
    <g>
        <clipPath id="_clip70">
            <path d="M1000,40L1720,400L1000,760L280,400L1000,40Z"/>
        </clipPath>
        <g clip-path="url(#_clip70)">
            <path d="M1640,360L920,720" style="fill:none;fill-rule:nonzero;stroke:rgb(237,211,193);stroke-width:1.2px;"/>
        </g>
    </g>
    <g>
        <clipPath id="_clip71">
            <path d="M1000,40L1720,400L1000,760L280,400L1000,40Z"/>
        </clipPath>
        <g clip-path="url(#_clip71)">
            <path d="M1660,370L940,730" style="fill:none;fill-rule:nonzero;stroke:rgb(237,211,193);stroke-width:1.2px;"/>
        </g>
    </g>
    <g>
        <clipPath id="_clip72">
            <path d="M1000,40L1720,400L1000,760L280,400L1000,40Z"/>
        </clipPath>
        <g clip-path="url(#_clip72)">
            <path d="M1680,380L960,740" style="fill:none;fill-rule:nonzero;stroke:rgb(237,211,193);stroke-width:1.2px;"/>
        </g>
    </g>
    <g>
        <clipPath id="_clip73">
            <path d="M1000,40L1720,400L1000,760L280,400L1000,40Z"/>
        </clipPath>
        <g clip-path="url(#_clip73)">
            <path d="M1700,390L980,750" style="fill:none;fill-rule:nonzero;stroke:rgb(237,211,193);stroke-width:1.2px;"/>
        </g>
    </g>
    <g>
        <clipPath id="_clip74">
            <path d="M1000,40L1720,400L1000,760L280,400L1000,40Z"/>
        </clipPath>
        <g clip-path="url(#_clip74)">
            <path d="M1720,400L1000,760" style="fill:none;fill-rule:nonzero;stroke:rgb(237,211,193);stroke-width:1.2px;"/>
        </g>
    </g>
    <g>
        <clipPath id="_clip75">
            <path d="M280,400L1000,760L1000,780L280,420L280,400Z"/>
        </clipPath>
        <g clip-path="url(#_clip75)">
            <path d="M280,400L280,420" style="fill:none;fill-rule:nonzero;stroke:rgb(237,211,193);stroke-width:1px;"/>
        </g>
    </g>
    <g>
        <clipPath id="_clip76">
            <path d="M280,400L1000,760L1000,780L280,420L280,400Z"/>
        </clipPath>
        <g clip-path="url(#_clip76)">
            <path d="M300,410L300,430" style="fill:none;fill-rule:nonzero;stroke:rgb(237,211,193);stroke-width:1px;"/>
        </g>
    </g>
    <g>
        <clipPath id="_clip77">
            <path d="M280,400L1000,760L1000,780L280,420L280,400Z"/>
        </clipPath>
        <g clip-path="url(#_clip77)">
            <path d="M320,420L320,440" style="fill:none;fill-rule:nonzero;stroke:rgb(237,211,193);stroke-width:1px;"/>
        </g>
    </g>
    <g>
        <clipPath id="_clip78">
            <path d="M280,400L1000,760L1000,780L280,420L280,400Z"/>
        </clipPath>
        <g clip-path="url(#_clip78)">
            <path d="M340,430L340,450" style="fill:none;fill-rule:nonzero;stroke:rgb(237,211,193);stroke-width:1px;"/>
        </g>
    </g>
    <g>
        <clipPath id="_clip79">
            <path d="M280,400L1000,760L1000,780L280,420L280,400Z"/>
        </clipPath>
        <g clip-path="url(#_clip79)">
            <path d="M360,440L360,460" style="fill:none;fill-rule:nonzero;stroke:rgb(237,211,193);stroke-width:1px;"/>
        </g>
    </g>
    <g>
        <clipPath id="_clip80">
            <path d="M280,400L1000,760L1000,780L280,420L280,400Z"/>
        </clipPath>
        <g clip-path="url(#_clip80)">
            <path d="M380,450L380,470" style="fill:none;fill-rule:nonzero;stroke:rgb(237,211,193);stroke-width:1px;"/>
        </g>
    </g>
    <g>
        <clipPath id="_clip81">
            <path d="M280,400L1000,760L1000,780L280,420L280,400Z"/>
        </clipPath>
        <g clip-path="url(#_clip81)">
            <path d="M400,460L400,480" style="fill:none;fill-rule:nonzero;stroke:rgb(237,211,193);stroke-width:1px;"/>
        </g>
    </g>
    <g>
        <clipPath id="_clip82">
            <path d="M280,400L1000,760L1000,780L280,420L280,400Z"/>
        </clipPath>
        <g clip-path="url(#_clip82)">
            <path d="M420,470L420,490" style="fill:none;fill-rule:nonzero;stroke:rgb(237,211,193);stroke-width:1px;"/>
        </g>
    </g>
    <g>
        <clipPath id="_clip83">
            <path d="M280,400L1000,760L1000,780L280,420L280,400Z"/>
        </clipPath>
        <g clip-path="url(#_clip83)">
            <path d="M440,480L440,500" style="fill:none;fill-rule:nonzero;stroke:rgb(237,211,193);stroke-width:1px;"/>
        </g>
    </g>
    <g>
        <clipPath id="_clip84">
            <path d="M280,400L1000,760L1000,780L280,420L280,400Z"/>
        </clipPath>
        <g clip-path="url(#_clip84)">
            <path d="M460,490L460,510" style="fill:none;fill-rule:nonzero;stroke:rgb(237,211,193);stroke-width:1px;"/>
        </g>
    </g>
    <g>
        <clipPath id="_clip85">
            <path d="M280,400L1000,760L1000,780L280,420L280,400Z"/>
        </clipPath>
        <g clip-path="url(#_clip85)">
            <path d="M480,500L480,520" style="fill:none;fill-rule:nonzero;stroke:rgb(237,211,193);stroke-width:1px;"/>
        </g>
    </g>
    <g>
        <clipPath id="_clip86">
            <path d="M280,400L1000,760L1000,780L280,420L280,400Z"/>
        </clipPath>
        <g clip-path="url(#_clip86)">
            <path d="M500,510L500,530" style="fill:none;fill-rule:nonzero;stroke:rgb(237,211,193);stroke-width:1px;"/>
        </g>
    </g>
    <g>
        <clipPath id="_clip87">
            <path d="M280,400L1000,760L1000,780L280,420L280,400Z"/>
        </clipPath>
        <g clip-path="url(#_clip87)">
            <path d="M520,520L520,540" style="fill:none;fill-rule:nonzero;stroke:rgb(237,211,193);stroke-width:1px;"/>
        </g>
    </g>
    <g>
        <clipPath id="_clip88">
            <path d="M280,400L1000,760L1000,780L280,420L280,400Z"/>
        </clipPath>
        <g clip-path="url(#_clip88)">
            <path d="M540,530L540,550" style="fill:none;fill-rule:nonzero;stroke:rgb(237,211,193);stroke-width:1px;"/>
        </g>
    </g>
    <g>
        <clipPath id="_clip89">
            <path d="M280,400L1000,760L1000,780L280,420L280,400Z"/>
        </clipPath>
        <g clip-path="url(#_clip89)">
            <path d="M560,540L560,560" style="fill:none;fill-rule:nonzero;stroke:rgb(237,211,193);stroke-width:1px;"/>
        </g>
    </g>
    <g>
        <clipPath id="_clip90">
            <path d="M280,400L1000,760L1000,780L280,420L280,400Z"/>
        </clipPath>
        <g clip-path="url(#_clip90)">
            <path d="M580,550L580,570" style="fill:none;fill-rule:nonzero;stroke:rgb(237,211,193);stroke-width:1px;"/>
        </g>
    </g>
    <g>
        <clipPath id="_clip91">
            <path d="M280,400L1000,760L1000,780L280,420L280,400Z"/>
        </clipPath>
        <g clip-path="url(#_clip91)">
            <path d="M600,560L600,580" style="fill:none;fill-rule:nonzero;stroke:rgb(237,211,193);stroke-width:1px;"/>
        </g>
    </g>
    <g>
        <clipPath id="_clip92">
            <path d="M280,400L1000,760L1000,780L280,420L280,400Z"/>
        </clipPath>
        <g clip-path="url(#_clip92)">
            <path d="M620,570L620,590" style="fill:none;fill-rule:nonzero;stroke:rgb(237,211,193);stroke-width:1px;"/>
        </g>
    </g>
    <g>
        <clipPath id="_clip93">
            <path d="M280,400L1000,760L1000,780L280,420L280,400Z"/>
        </clipPath>
        <g clip-path="url(#_clip93)">
            <path d="M640,580L640,600" style="fill:none;fill-rule:nonzero;stroke:rgb(237,211,193);stroke-width:1px;"/>
        </g>
    </g>
    <g>
        <clipPath id="_clip94">
            <path d="M280,400L1000,760L1000,780L280,420L280,400Z"/>
        </clipPath>
        <g clip-path="url(#_clip94)">
            <path d="M660,590L660,610" style="fill:none;fill-rule:nonzero;stroke:rgb(237,211,193);stroke-width:1px;"/>
        </g>
    </g>
    <g>
        <clipPath id="_clip95">
            <path d="M280,400L1000,760L1000,780L280,420L280,400Z"/>
        </clipPath>
        <g clip-path="url(#_clip95)">
            <path d="M680,600L680,620" style="fill:none;fill-rule:nonzero;stroke:rgb(237,211,193);stroke-width:1px;"/>
        </g>
    </g>
    <g>
        <clipPath id="_clip96">
            <path d="M280,400L1000,760L1000,780L280,420L280,400Z"/>
        </clipPath>
        <g clip-path="url(#_clip96)">
            <path d="M700,610L700,630" style="fill:none;fill-rule:nonzero;stroke:rgb(237,211,193);stroke-width:1px;"/>
        </g>
    </g>
    <g>
        <clipPath id="_clip97">
            <path d="M280,400L1000,760L1000,780L280,420L280,400Z"/>
        </clipPath>
        <g clip-path="url(#_clip97)">
            <path d="M720,620L720,640" style="fill:none;fill-rule:nonzero;stroke:rgb(237,211,193);stroke-width:1px;"/>
        </g>
    </g>
    <g>
        <clipPath id="_clip98">
            <path d="M280,400L1000,760L1000,780L280,420L280,400Z"/>
        </clipPath>
        <g clip-path="url(#_clip98)">
            <path d="M740,630L740,650" style="fill:none;fill-rule:nonzero;stroke:rgb(237,211,193);stroke-width:1px;"/>
        </g>
    </g>
    <g>
        <clipPath id="_clip99">
            <path d="M280,400L1000,760L1000,780L280,420L280,400Z"/>
        </clipPath>
        <g clip-path="url(#_clip99)">
            <path d="M760,640L760,660" style="fill:none;fill-rule:nonzero;stroke:rgb(237,211,193);stroke-width:1px;"/>
        </g>
    </g>
    <g>
        <clipPath id="_clip100">
            <path d="M280,400L1000,760L1000,780L280,420L280,400Z"/>
        </clipPath>
        <g clip-path="url(#_clip100)">
            <path d="M780,650L780,670" style="fill:none;fill-rule:nonzero;stroke:rgb(237,211,193);stroke-width:1px;"/>
        </g>
    </g>
    <g>
        <clipPath id="_clip101">
            <path d="M280,400L1000,760L1000,780L280,420L280,400Z"/>
        </clipPath>
        <g clip-path="url(#_clip101)">
            <path d="M800,660L800,680" style="fill:none;fill-rule:nonzero;stroke:rgb(237,211,193);stroke-width:1px;"/>
        </g>
    </g>
    <g>
        <clipPath id="_clip102">
            <path d="M280,400L1000,760L1000,780L280,420L280,400Z"/>
        </clipPath>
        <g clip-path="url(#_clip102)">
            <path d="M820,670L820,690" style="fill:none;fill-rule:nonzero;stroke:rgb(237,211,193);stroke-width:1px;"/>
        </g>
    </g>
    <g>
        <clipPath id="_clip103">
            <path d="M280,400L1000,760L1000,780L280,420L280,400Z"/>
        </clipPath>
        <g clip-path="url(#_clip103)">
            <path d="M840,680L840,700" style="fill:none;fill-rule:nonzero;stroke:rgb(237,211,193);stroke-width:1px;"/>
        </g>
    </g>
    <g>
        <clipPath id="_clip104">
            <path d="M280,400L1000,760L1000,780L280,420L280,400Z"/>
        </clipPath>
        <g clip-path="url(#_clip104)">
            <path d="M860,690L860,710" style="fill:none;fill-rule:nonzero;stroke:rgb(237,211,193);stroke-width:1px;"/>
        </g>
    </g>
    <g>
        <clipPath id="_clip105">
            <path d="M280,400L1000,760L1000,780L280,420L280,400Z"/>
        </clipPath>
        <g clip-path="url(#_clip105)">
            <path d="M880,700L880,720" style="fill:none;fill-rule:nonzero;stroke:rgb(237,211,193);stroke-width:1px;"/>
        </g>
    </g>
    <g>
        <clipPath id="_clip106">
            <path d="M280,400L1000,760L1000,780L280,420L280,400Z"/>
        </clipPath>
        <g clip-path="url(#_clip106)">
            <path d="M900,710L900,730" style="fill:none;fill-rule:nonzero;stroke:rgb(237,211,193);stroke-width:1px;"/>
        </g>
    </g>
    <g>
        <clipPath id="_clip107">
            <path d="M280,400L1000,760L1000,780L280,420L280,400Z"/>
        </clipPath>
        <g clip-path="url(#_clip107)">
            <path d="M920,720L920,740" style="fill:none;fill-rule:nonzero;stroke:rgb(237,211,193);stroke-width:1px;"/>
        </g>
    </g>
    <g>
        <clipPath id="_clip108">
            <path d="M280,400L1000,760L1000,780L280,420L280,400Z"/>
        </clipPath>
        <g clip-path="url(#_clip108)">
            <path d="M940,730L940,750" style="fill:none;fill-rule:nonzero;stroke:rgb(237,211,193);stroke-width:1px;"/>
        </g>
    </g>
    <g>
        <clipPath id="_clip109">
            <path d="M280,400L1000,760L1000,780L280,420L280,400Z"/>
        </clipPath>
        <g clip-path="url(#_clip109)">
            <path d="M960,740L960,760" style="fill:none;fill-rule:nonzero;stroke:rgb(237,211,193);stroke-width:1px;"/>
        </g>
    </g>
    <g>
        <clipPath id="_clip110">
            <path d="M280,400L1000,760L1000,780L280,420L280,400Z"/>
        </clipPath>
        <g clip-path="url(#_clip110)">
            <path d="M980,750L980,770" style="fill:none;fill-rule:nonzero;stroke:rgb(237,211,193);stroke-width:1px;"/>
        </g>
    </g>
    <g>
        <clipPath id="_clip111">
            <path d="M280,400L1000,760L1000,780L280,420L280,400Z"/>
        </clipPath>
        <g clip-path="url(#_clip111)">
            <path d="M1000,760L1000,780" style="fill:none;fill-rule:nonzero;stroke:rgb(237,211,193);stroke-width:1px;"/>
        </g>
    </g>
    <g>
        <clipPath id="_clip112">
            <path d="M1720,400L1000,760L1000,780L1720,420L1720,400Z"/>
        </clipPath>
        <g clip-path="url(#_clip112)">
            <path d="M1720,400L1720,420" style="fill:none;fill-rule:nonzero;stroke:rgb(237,211,193);stroke-width:1px;"/>
        </g>
    </g>
    <g>
        <clipPath id="_clip113">
            <path d="M1720,400L1000,760L1000,780L1720,420L1720,400Z"/>
        </clipPath>
        <g clip-path="url(#_clip113)">
            <path d="M1700,410L1700,430" style="fill:none;fill-rule:nonzero;stroke:rgb(237,211,193);stroke-width:1px;"/>
        </g>
    </g>
    <g>
        <clipPath id="_clip114">
            <path d="M1720,400L1000,760L1000,780L1720,420L1720,400Z"/>
        </clipPath>
        <g clip-path="url(#_clip114)">
            <path d="M1680,420L1680,440" style="fill:none;fill-rule:nonzero;stroke:rgb(237,211,193);stroke-width:1px;"/>
        </g>
    </g>
    <g>
        <clipPath id="_clip115">
            <path d="M1720,400L1000,760L1000,780L1720,420L1720,400Z"/>
        </clipPath>
        <g clip-path="url(#_clip115)">
            <path d="M1660,430L1660,450" style="fill:none;fill-rule:nonzero;stroke:rgb(237,211,193);stroke-width:1px;"/>
        </g>
    </g>
    <g>
        <clipPath id="_clip116">
            <path d="M1720,400L1000,760L1000,780L1720,420L1720,400Z"/>
        </clipPath>
        <g clip-path="url(#_clip116)">
            <path d="M1640,440L1640,460" style="fill:none;fill-rule:nonzero;stroke:rgb(237,211,193);stroke-width:1px;"/>
        </g>
    </g>
    <g>
        <clipPath id="_clip117">
            <path d="M1720,400L1000,760L1000,780L1720,420L1720,400Z"/>
        </clipPath>
        <g clip-path="url(#_clip117)">
            <path d="M1620,450L1620,470" style="fill:none;fill-rule:nonzero;stroke:rgb(237,211,193);stroke-width:1px;"/>
        </g>
    </g>
    <g>
        <clipPath id="_clip118">
            <path d="M1720,400L1000,760L1000,780L1720,420L1720,400Z"/>
        </clipPath>
        <g clip-path="url(#_clip118)">
            <path d="M1600,460L1600,480" style="fill:none;fill-rule:nonzero;stroke:rgb(237,211,193);stroke-width:1px;"/>
        </g>
    </g>
    <g>
        <clipPath id="_clip119">
            <path d="M1720,400L1000,760L1000,780L1720,420L1720,400Z"/>
        </clipPath>
        <g clip-path="url(#_clip119)">
            <path d="M1580,470L1580,490" style="fill:none;fill-rule:nonzero;stroke:rgb(237,211,193);stroke-width:1px;"/>
        </g>
    </g>
    <g>
        <clipPath id="_clip120">
            <path d="M1720,400L1000,760L1000,780L1720,420L1720,400Z"/>
        </clipPath>
        <g clip-path="url(#_clip120)">
            <path d="M1560,480L1560,500" style="fill:none;fill-rule:nonzero;stroke:rgb(237,211,193);stroke-width:1px;"/>
        </g>
    </g>
    <g>
        <clipPath id="_clip121">
            <path d="M1720,400L1000,760L1000,780L1720,420L1720,400Z"/>
        </clipPath>
        <g clip-path="url(#_clip121)">
            <path d="M1540,490L1540,510" style="fill:none;fill-rule:nonzero;stroke:rgb(237,211,193);stroke-width:1px;"/>
        </g>
    </g>
    <g>
        <clipPath id="_clip122">
            <path d="M1720,400L1000,760L1000,780L1720,420L1720,400Z"/>
        </clipPath>
        <g clip-path="url(#_clip122)">
            <path d="M1520,500L1520,520" style="fill:none;fill-rule:nonzero;stroke:rgb(237,211,193);stroke-width:1px;"/>
        </g>
    </g>
    <g>
        <clipPath id="_clip123">
            <path d="M1720,400L1000,760L1000,780L1720,420L1720,400Z"/>
        </clipPath>
        <g clip-path="url(#_clip123)">
            <path d="M1500,510L1500,530" style="fill:none;fill-rule:nonzero;stroke:rgb(237,211,193);stroke-width:1px;"/>
        </g>
    </g>
    <g>
        <clipPath id="_clip124">
            <path d="M1720,400L1000,760L1000,780L1720,420L1720,400Z"/>
        </clipPath>
        <g clip-path="url(#_clip124)">
            <path d="M1480,520L1480,540" style="fill:none;fill-rule:nonzero;stroke:rgb(237,211,193);stroke-width:1px;"/>
        </g>
    </g>
    <g>
        <clipPath id="_clip125">
            <path d="M1720,400L1000,760L1000,780L1720,420L1720,400Z"/>
        </clipPath>
        <g clip-path="url(#_clip125)">
            <path d="M1460,530L1460,550" style="fill:none;fill-rule:nonzero;stroke:rgb(237,211,193);stroke-width:1px;"/>
        </g>
    </g>
    <g>
        <clipPath id="_clip126">
            <path d="M1720,400L1000,760L1000,780L1720,420L1720,400Z"/>
        </clipPath>
        <g clip-path="url(#_clip126)">
            <path d="M1440,540L1440,560" style="fill:none;fill-rule:nonzero;stroke:rgb(237,211,193);stroke-width:1px;"/>
        </g>
    </g>
    <g>
        <clipPath id="_clip127">
            <path d="M1720,400L1000,760L1000,780L1720,420L1720,400Z"/>
        </clipPath>
        <g clip-path="url(#_clip127)">
            <path d="M1420,550L1420,570" style="fill:none;fill-rule:nonzero;stroke:rgb(237,211,193);stroke-width:1px;"/>
        </g>
    </g>
    <g>
        <clipPath id="_clip128">
            <path d="M1720,400L1000,760L1000,780L1720,420L1720,400Z"/>
        </clipPath>
        <g clip-path="url(#_clip128)">
            <path d="M1400,560L1400,580" style="fill:none;fill-rule:nonzero;stroke:rgb(237,211,193);stroke-width:1px;"/>
        </g>
    </g>
    <g>
        <clipPath id="_clip129">
            <path d="M1720,400L1000,760L1000,780L1720,420L1720,400Z"/>
        </clipPath>
        <g clip-path="url(#_clip129)">
            <path d="M1380,570L1380,590" style="fill:none;fill-rule:nonzero;stroke:rgb(237,211,193);stroke-width:1px;"/>
        </g>
    </g>
    <g>
        <clipPath id="_clip130">
            <path d="M1720,400L1000,760L1000,780L1720,420L1720,400Z"/>
        </clipPath>
        <g clip-path="url(#_clip130)">
            <path d="M1360,580L1360,600" style="fill:none;fill-rule:nonzero;stroke:rgb(237,211,193);stroke-width:1px;"/>
        </g>
    </g>
    <g>
        <clipPath id="_clip131">
            <path d="M1720,400L1000,760L1000,780L1720,420L1720,400Z"/>
        </clipPath>
        <g clip-path="url(#_clip131)">
            <path d="M1340,590L1340,610" style="fill:none;fill-rule:nonzero;stroke:rgb(237,211,193);stroke-width:1px;"/>
        </g>
    </g>
    <g>
        <clipPath id="_clip132">
            <path d="M1720,400L1000,760L1000,780L1720,420L1720,400Z"/>
        </clipPath>
        <g clip-path="url(#_clip132)">
            <path d="M1320,600L1320,620" style="fill:none;fill-rule:nonzero;stroke:rgb(237,211,193);stroke-width:1px;"/>
        </g>
    </g>
    <g>
        <clipPath id="_clip133">
            <path d="M1720,400L1000,760L1000,780L1720,420L1720,400Z"/>
        </clipPath>
        <g clip-path="url(#_clip133)">
            <path d="M1300,610L1300,630" style="fill:none;fill-rule:nonzero;stroke:rgb(237,211,193);stroke-width:1px;"/>
        </g>
    </g>
    <g>
        <clipPath id="_clip134">
            <path d="M1720,400L1000,760L1000,780L1720,420L1720,400Z"/>
        </clipPath>
        <g clip-path="url(#_clip134)">
            <path d="M1280,620L1280,640" style="fill:none;fill-rule:nonzero;stroke:rgb(237,211,193);stroke-width:1px;"/>
        </g>
    </g>
    <g>
        <clipPath id="_clip135">
            <path d="M1720,400L1000,760L1000,780L1720,420L1720,400Z"/>
        </clipPath>
        <g clip-path="url(#_clip135)">
            <path d="M1260,630L1260,650" style="fill:none;fill-rule:nonzero;stroke:rgb(237,211,193);stroke-width:1px;"/>
        </g>
    </g>
    <g>
        <clipPath id="_clip136">
            <path d="M1720,400L1000,760L1000,780L1720,420L1720,400Z"/>
        </clipPath>
        <g clip-path="url(#_clip136)">
            <path d="M1240,640L1240,660" style="fill:none;fill-rule:nonzero;stroke:rgb(237,211,193);stroke-width:1px;"/>
        </g>
    </g>
    <g>
        <clipPath id="_clip137">
            <path d="M1720,400L1000,760L1000,780L1720,420L1720,400Z"/>
        </clipPath>
        <g clip-path="url(#_clip137)">
            <path d="M1220,650L1220,670" style="fill:none;fill-rule:nonzero;stroke:rgb(237,211,193);stroke-width:1px;"/>
        </g>
    </g>
    <g>
        <clipPath id="_clip138">
            <path d="M1720,400L1000,760L1000,780L1720,420L1720,400Z"/>
        </clipPath>
        <g clip-path="url(#_clip138)">
            <path d="M1200,660L1200,680" style="fill:none;fill-rule:nonzero;stroke:rgb(237,211,193);stroke-width:1px;"/>
        </g>
    </g>
    <g>
        <clipPath id="_clip139">
            <path d="M1720,400L1000,760L1000,780L1720,420L1720,400Z"/>
        </clipPath>
        <g clip-path="url(#_clip139)">
            <path d="M1180,670L1180,690" style="fill:none;fill-rule:nonzero;stroke:rgb(237,211,193);stroke-width:1px;"/>
        </g>
    </g>
    <g>
        <clipPath id="_clip140">
            <path d="M1720,400L1000,760L1000,780L1720,420L1720,400Z"/>
        </clipPath>
        <g clip-path="url(#_clip140)">
            <path d="M1160,680L1160,700" style="fill:none;fill-rule:nonzero;stroke:rgb(237,211,193);stroke-width:1px;"/>
        </g>
    </g>
    <g>
        <clipPath id="_clip141">
            <path d="M1720,400L1000,760L1000,780L1720,420L1720,400Z"/>
        </clipPath>
        <g clip-path="url(#_clip141)">
            <path d="M1140,690L1140,710" style="fill:none;fill-rule:nonzero;stroke:rgb(237,211,193);stroke-width:1px;"/>
        </g>
    </g>
    <g>
        <clipPath id="_clip142">
            <path d="M1720,400L1000,760L1000,780L1720,420L1720,400Z"/>
        </clipPath>
        <g clip-path="url(#_clip142)">
            <path d="M1120,700L1120,720" style="fill:none;fill-rule:nonzero;stroke:rgb(237,211,193);stroke-width:1px;"/>
        </g>
    </g>
    <g>
        <clipPath id="_clip143">
            <path d="M1720,400L1000,760L1000,780L1720,420L1720,400Z"/>
        </clipPath>
        <g clip-path="url(#_clip143)">
            <path d="M1100,710L1100,730" style="fill:none;fill-rule:nonzero;stroke:rgb(237,211,193);stroke-width:1px;"/>
        </g>
    </g>
    <g>
        <clipPath id="_clip144">
            <path d="M1720,400L1000,760L1000,780L1720,420L1720,400Z"/>
        </clipPath>
        <g clip-path="url(#_clip144)">
            <path d="M1080,720L1080,740" style="fill:none;fill-rule:nonzero;stroke:rgb(237,211,193);stroke-width:1px;"/>
        </g>
    </g>
    <g>
        <clipPath id="_clip145">
            <path d="M1720,400L1000,760L1000,780L1720,420L1720,400Z"/>
        </clipPath>
        <g clip-path="url(#_clip145)">
            <path d="M1060,730L1060,750" style="fill:none;fill-rule:nonzero;stroke:rgb(237,211,193);stroke-width:1px;"/>
        </g>
    </g>
    <g>
        <clipPath id="_clip146">
            <path d="M1720,400L1000,760L1000,780L1720,420L1720,400Z"/>
        </clipPath>
        <g clip-path="url(#_clip146)">
            <path d="M1040,740L1040,760" style="fill:none;fill-rule:nonzero;stroke:rgb(237,211,193);stroke-width:1px;"/>
        </g>
    </g>
    <g>
        <clipPath id="_clip147">
            <path d="M1720,400L1000,760L1000,780L1720,420L1720,400Z"/>
        </clipPath>
        <g clip-path="url(#_clip147)">
            <path d="M1020,750L1020,770" style="fill:none;fill-rule:nonzero;stroke:rgb(237,211,193);stroke-width:1px;"/>
        </g>
    </g>
    <g>
        <clipPath id="_clip148">
            <path d="M1720,400L1000,760L1000,780L1720,420L1720,400Z"/>
        </clipPath>
        <g clip-path="url(#_clip148)">
            <path d="M1000,760L1000,780" style="fill:none;fill-rule:nonzero;stroke:rgb(237,211,193);stroke-width:1px;"/>
        </g>
    </g>
    <path d="M280,400L1000,760L1000,780L280,420L280,400Z" style="fill:none;fill-rule:nonzero;stroke:rgb(110,78,60);stroke-width:2px;"/>
    <path d="M1720,400L1000,760L1000,780L1720,420L1720,400Z" style="fill:none;fill-rule:nonzero;stroke:rgb(110,78,60);stroke-width:2px;"/>
    <path d="M1000,40L1720,400L1000,760L280,400L1000,40Z" style="fill:none;fill-rule:nonzero;stroke:rgb(110,78,60);stroke-width:2px;"/>
    <path d="M1000,760L1000,780" style="fill:none;fill-rule:nonzero;stroke:rgb(110,78,60);stroke-width:2px;"/>
</svg>
